  0
SECTION
  2
HEADER
  9
$ACADVER
  1
AC1015
  9
$ACADMAINTVER
 70
     6
  9
$DWGCODEPAGE
  3
ANSI_1252
  9
$INSBASE
 10
0.0
 20
0.0
 30
0.0
  9
$EXTMIN
 10
-4.0855783197
 20
-8.0637124133
 30
0.0
  9
$EXTMAX
 10
4.0855783197
 20
0.621
 30
0.0
  9
$LIMMIN
 10
0.0
 20
0.0
  9
$LIMMAX
 10
12.0
 20
9.0
  9
$ORTHOMODE
 70
     0
  9
$REGENMODE
 70
     1
  9
$FILLMODE
 70
     1
  9
$QTEXTMODE
 70
     0
  9
$MIRRTEXT
 70
     1
  9
$LTSCALE
 40
1.0
  9
$ATTMODE
 70
     1
  9
$TEXTSIZE
 40
0.125
  9
$TRACEWID
 40
0.05
  9
$TEXTSTYLE
  7
Standard
  9
$CLAYER
  8
0
  9
$CELTYPE
  6
ByLayer
  9
$CECOLOR
 62
   256
  9
$CELTSCALE
 40
1.0
  9
$DISPSILH
 70
     0
  9
$DIMSCALE
 40
1.0
  9
$DIMASZ
 40
0.13
  9
$DIMEXO
 40
0.05
  9
$DIMDLI
 40
0.38
  9
$DIMRND
 40
0.0
  9
$DIMDLE
 40
0.0
  9
$DIMEXE
 40
0.125
  9
$DIMTP
 40
0.0
  9
$DIMTM
 40
0.0
  9
$DIMTXT
 40
0.125
  9
$DIMCEN
 40
0.09
  9
$DIMTSZ
 40
0.0
  9
$DIMTOL
 70
     0
  9
$DIMLIM
 70
     0
  9
$DIMTIH
 70
     1
  9
$DIMTOH
 70
     1
  9
$DIMSE1
 70
     0
  9
$DIMSE2
 70
     0
  9
$DIMTAD
 70
     0
  9
$DIMZIN
 70
     0
  9
$DIMBLK
  1

  9
$DIMASO
 70
     1
  9
$DIMSHO
 70
     1
  9
$DIMPOST
  1

  9
$DIMAPOST
  1

  9
$DIMALT
 70
     0
  9
$DIMALTD
 70
     2
  9
$DIMALTF
 40
25.4
  9
$DIMLFAC
 40
1.0
  9
$DIMTOFL
 70
     0
  9
$DIMTVP
 40
0.0
  9
$DIMTIX
 70
     0
  9
$DIMSOXD
 70
     0
  9
$DIMSAH
 70
     0
  9
$DIMBLK1
  1

  9
$DIMBLK2
  1

  9
$DIMSTYLE
  2
Standard
  9
$DIMCLRD
 70
     0
  9
$DIMCLRE
 70
     0
  9
$DIMCLRT
 70
     0
  9
$DIMTFAC
 40
1.0
  9
$DIMGAP
 40
0.06
  9
$DIMJUST
 70
     0
  9
$DIMSD1
 70
     0
  9
$DIMSD2
 70
     0
  9
$DIMTOLJ
 70
     1
  9
$DIMTZIN
 70
     0
  9
$DIMALTZ
 70
     0
  9
$DIMALTTZ
 70
     0
  9
$DIMUPT
 70
     0
  9
$DIMDEC
 70
     4
  9
$DIMTDEC
 70
     4
  9
$DIMALTU
 70
     2
  9
$DIMALTTD
 70
     2
  9
$DIMTXSTY
  7
Standard
  9
$DIMAUNIT
 70
     0
  9
$DIMADEC
 70
     4
  9
$DIMALTRND
 40
0.0
  9
$DIMAZIN
 70
     0
  9
$DIMDSEP
 70
    46
  9
$DIMATFIT
 70
     3
  9
$DIMFRAC
 70
     0
  9
$DIMLDRBLK
  1

  9
$DIMLUNIT
 70
     2
  9
$DIMLWD
 70
    -2
  9
$DIMLWE
 70
    -2
  9
$DIMTMOVE
 70
     0
  9
$LUNITS
 70
     2
  9
$LUPREC
 70
     2
  9
$SKETCHINC
 40
0.1
  9
$FILLETRAD
 40
0.5
  9
$AUNITS
 70
     0
  9
$AUPREC
 70
     2
  9
$MENU
  1
.
  9
$ELEVATION
 40
0.0
  9
$PELEVATION
 40
0.0
  9
$THICKNESS
 40
0.0
  9
$LIMCHECK
 70
     0
  9
$CHAMFERA
 40
0.0
  9
$CHAMFERB
 40
0.0
  9
$CHAMFERC
 40
0.0
  9
$CHAMFERD
 40
0.0
  9
$SKPOLY
 70
     0
  9
$TDCREATE
 40
2458846.524034213
  9
$TDUCREATE
 40
2458846.732367546
  9
$TDUPDATE
 40
2458846.52407184
  9
$TDUUPDATE
 40
2458846.732405174
  9
$TDINDWG
 40
0.0000000116
  9
$TDUSRTIMER
 40
0.0000000116
  9
$USRTIMER
 70
     1
  9
$ANGBASE
 50
0.0
  9
$ANGDIR
 70
     0
  9
$PDMODE
 70
     0
  9
$PDSIZE
 40
-1.0
  9
$PLINEWID
 40
0.0
  9
$SPLFRAME
 70
     0
  9
$SPLINETYPE
 70
     6
  9
$SPLINESEGS
 70
     8
  9
$HANDSEED
  5
238
  9
$SURFTAB1
 70
     6
  9
$SURFTAB2
 70
     6
  9
$SURFTYPE
 70
     6
  9
$SURFU
 70
     6
  9
$SURFV
 70
     6
  9
$UCSBASE
  2

  9
$UCSNAME
  2

  9
$UCSORG
 10
0.0
 20
0.0
 30
0.0
  9
$UCSXDIR
 10
1.0
 20
0.0
 30
0.0
  9
$UCSYDIR
 10
0.0
 20
1.0
 30
0.0
  9
$UCSORTHOREF
  2

  9
$UCSORTHOVIEW
 70
     0
  9
$UCSORGTOP
 10
0.0
 20
0.0
 30
0.0
  9
$UCSORGBOTTOM
 10
0.0
 20
0.0
 30
0.0
  9
$UCSORGLEFT
 10
0.0
 20
0.0
 30
0.0
  9
$UCSORGRIGHT
 10
0.0
 20
0.0
 30
0.0
  9
$UCSORGFRONT
 10
0.0
 20
0.0
 30
0.0
  9
$UCSORGBACK
 10
0.0
 20
0.0
 30
0.0
  9
$PUCSBASE
  2

  9
$PUCSNAME
  2

  9
$PUCSORG
 10
0.0
 20
0.0
 30
0.0
  9
$PUCSXDIR
 10
1.0
 20
0.0
 30
0.0
  9
$PUCSYDIR
 10
0.0
 20
1.0
 30
0.0
  9
$PUCSORTHOREF
  2

  9
$PUCSORTHOVIEW
 70
     0
  9
$PUCSORGTOP
 10
0.0
 20
0.0
 30
0.0
  9
$PUCSORGBOTTOM
 10
0.0
 20
0.0
 30
0.0
  9
$PUCSORGLEFT
 10
0.0
 20
0.0
 30
0.0
  9
$PUCSORGRIGHT
 10
0.0
 20
0.0
 30
0.0
  9
$PUCSORGFRONT
 10
0.0
 20
0.0
 30
0.0
  9
$PUCSORGBACK
 10
0.0
 20
0.0
 30
0.0
  9
$USERI1
 70
     0
  9
$USERI2
 70
     0
  9
$USERI3
 70
     0
  9
$USERI4
 70
     0
  9
$USERI5
 70
     0
  9
$USERR1
 40
0.0
  9
$USERR2
 40
0.0
  9
$USERR3
 40
0.0
  9
$USERR4
 40
0.0
  9
$USERR5
 40
0.0
  9
$WORLDVIEW
 70
     1
  9
$SHADEDGE
 70
     3
  9
$SHADEDIF
 70
    70
  9
$TILEMODE
 70
     1
  9
$MAXACTVP
 70
    64
  9
$PINSBASE
 10
0.0
 20
0.0
 30
0.0
  9
$PLIMCHECK
 70
     0
  9
$PEXTMIN
 10
1.0000000000E+20
 20
1.0000000000E+20
 30
1.0000000000E+20
  9
$PEXTMAX
 10
-1.0000000000E+20
 20
-1.0000000000E+20
 30
-1.0000000000E+20
  9
$PLIMMIN
 10
0.0
 20
0.0
  9
$PLIMMAX
 10
12.0
 20
9.0
  9
$UNITMODE
 70
     0
  9
$VISRETAIN
 70
     1
  9
$PLINEGEN
 70
     0
  9
$PSLTSCALE
 70
     1
  9
$TREEDEPTH
 70
  3020
  9
$CMLSTYLE
  2
Standard
  9
$CMLJUST
 70
     0
  9
$CMLSCALE
 40
1.0
  9
$PROXYGRAPHICS
 70
     1
  9
$MEASUREMENT
 70
     0
  9
$CELWEIGHT
370
    -1
  9
$ENDCAPS
280
     0
  9
$JOINSTYLE
280
     0
  9
$LWDISPLAY
290
     1
  9
$INSUNITS
 70
     1
  9
$HYPERLINKBASE
  1

  9
$STYLESHEET
  1

  9
$XEDIT
290
     1
  9
$CEPSNTYPE
380
     0
  9
$PSTYLEMODE
290
     1
  9
$FINGERPRINTGUID
  2
{8DAF36FD-54BE-4415-A8CA-02B107544858}
  9
$VERSIONGUID
  2
{FAEB1C32-E019-11D5-929B-00C0DF256EC4}
  9
$EXTNAMES
290
     1
  9
$PSVPSCALE
 40
0.0
  9
$OLESTARTUP
290
     0
  0
ENDSEC
  0
SECTION
  2
CLASSES
  0
CLASS
  1
ACDBDICTIONARYWDFLT
  2
AcDbDictionaryWithDefault
  3
ObjectDBX Classes
 90
        0
280
     0
281
     0
  0
CLASS
  1
VISUALSTYLE
  2
AcDbVisualStyle
  3
ObjectDBX Classes
 90
     4095
280
     0
281
     0
  0
CLASS
  1
MATERIAL
  2
AcDbMaterial
  3
ObjectDBX Classes
 90
     1153
280
     0
281
     0
  0
CLASS
  1
SCALE
  2
AcDbScale
  3
ObjectDBX Classes
 90
     1153
280
     0
281
     0
  0
CLASS
  1
TABLESTYLE
  2
AcDbTableStyle
  3
ObjectDBX Classes
 90
     4095
280
     0
281
     0
  0
CLASS
  1
MLEADERSTYLE
  2
AcDbMLeaderStyle
  3
ACDB_MLEADERSTYLE_CLASS
 90
     4095
280
     0
281
     0
  0
CLASS
  1
SUN
  2
AcDbSun
  3
SCENEOE
 90
     1153
280
     0
281
     0
  0
CLASS
  1
ACDBPLACEHOLDER
  2
AcDbPlaceHolder
  3
ObjectDBX Classes
 90
        0
280
     0
281
     0
  0
CLASS
  1
LAYOUT
  2
AcDbLayout
  3
ObjectDBX Classes
 90
        0
280
     0
281
     0
  0
ENDSEC
  0
SECTION
  2
TABLES
  0
TABLE
  2
VPORT
  5
8
330
0
100
AcDbSymbolTable
 70
     1
  0
VPORT
  5
29
330
8
100
AcDbSymbolTableRecord
100
AcDbViewportTableRecord
  2
*Active
 70
     0
 10
0.0
 20
0.0
 11
1.0
 21
1.0
 12
0.0
 22
-3.7213562066
 13
0.0
 23
0.0
 14
0.5
 24
0.5
 15
0.5
 25
0.5
 16
0.0
 26
0.0
 36
1.0
 17
0.0
 27
0.0
 37
0.0
 40
8.8584066615
 41
0.940866692
 42
50.0
 43
0.0
 44
0.0
 50
0.0
 51
0.0
 71
     0
 72
   100
 73
     1
 74
     3
 75
     0
 76
     0
 77
     0
 78
     0
281
     0
 65
     1
110
0.0
120
0.0
130
0.0
111
1.0
121
0.0
131
0.0
112
0.0
122
1.0
132
0.0
 79
     0
146
0.0
  0
ENDTAB
  0
TABLE
  2
LTYPE
  5
5
330
0
100
AcDbSymbolTable
 70
     6
  0
LTYPE
  5
14
330
5
100
AcDbSymbolTableRecord
100
AcDbLinetypeTableRecord
  2
ByBlock
 70
     0
  3

 72
    65
 73
     0
 40
0.0
  0
LTYPE
  5
15
330
5
100
AcDbSymbolTableRecord
100
AcDbLinetypeTableRecord
  2
ByLayer
 70
     0
  3

 72
    65
 73
     0
 40
0.0
  0
LTYPE
  5
16
330
5
100
AcDbSymbolTableRecord
100
AcDbLinetypeTableRecord
  2
Continuous
 70
     0
  3
Solid line
 72
    65
 73
     0
 40
0.0
  0
LTYPE
  5
6E
330
5
100
AcDbSymbolTableRecord
100
AcDbLinetypeTableRecord
  2
HIDDEN
 70
     0
  3
Hidden __ __ __ __ __ __ __ __ __ __ __ __ __ __
 72
    65
 73
     2
 40
0.075
 49
0.05
 74
     0
 49
-0.025
 74
     0
  0
LTYPE
  5
6F
330
5
100
AcDbSymbolTableRecord
100
AcDbLinetypeTableRecord
  2
PHANTOM
 70
     0
  3
Phantom ______  __  __  ______  __  __  ______
 72
    65
 73
     6
 40
0.5
 49
0.25
 74
     0
 49
-0.05
 74
     0
 49
0.05
 74
     0
 49
-0.05
 74
     0
 49
0.05
 74
     0
 49
-0.05
 74
     0
  0
LTYPE
  5
70
330
5
100
AcDbSymbolTableRecord
100
AcDbLinetypeTableRecord
  2
CENTER
 70
     0
  3
Center ____ _ ____ _ ____ _ ____ _ ____ _ ____
 72
    65
 73
     4
 40
0.4
 49
0.25
 74
     0
 49
-0.05
 74
     0
 49
0.05
 74
     0
 49
-0.05
 74
     0
  0
LTYPE
  5
71
330
5
100
AcDbSymbolTableRecord
100
AcDbLinetypeTableRecord
  2
CENTERX2
 70
     0
  3
Center (2x) ________  __  ________  __  _____
 72
    65
 73
     4
 40
0.8
 49
0.5
 74
     0
 49
-0.1
 74
     0
 49
0.1
 74
     0
 49
-0.1
 74
     0
  0
LTYPE
  5
72
330
5
100
AcDbSymbolTableRecord
100
AcDbLinetypeTableRecord
  2
DOT2
 70
     0
  3
Dot (.5x) ........................................
 72
    65
 73
     2
 40
0.025
 49
0.0
 74
     0
 49
-0.025
 74
     0
  0
ENDTAB
  0
TABLE
  2
LAYER
  5
2
330
0
100
AcDbSymbolTable
 70
     1
  0
LAYER
  5
10
330
2
100
AcDbSymbolTableRecord
100
AcDbLayerTableRecord
  2
0
 70
     0
 62
     7
  6
Continuous
370
    -3
390
F
  0
ENDTAB
  0
TABLE
  2
STYLE
  5
3
330
0
100
AcDbSymbolTable
 70
     2
  0
STYLE
  5
11
330
3
100
AcDbSymbolTableRecord
100
AcDbTextStyleTableRecord
  2
Standard
 70
     0
 40
0.0
 41
1.0
 50
0.0
 71
     0
 42
0.125
  3
txt
  4

  0
STYLE
  5
235
330
3
100
AcDbSymbolTableRecord
100
AcDbTextStyleTableRecord
  2
SLDTEXTSTYLE0
 70
     0
 40
0.0
 41
0.7
 50
0.0
 71
     0
 42
0.125
  3
TXT
  4

  0
ENDTAB
  0
TABLE
  2
VIEW
  5
6
330
0
100
AcDbSymbolTable
 70
     0
  0
ENDTAB
  0
TABLE
  2
UCS
  5
7
330
0
100
AcDbSymbolTable
 70
     0
  0
ENDTAB
  0
TABLE
  2
APPID
  5
9
330
0
100
AcDbSymbolTable
 70
     1
  0
APPID
  5
12
330
9
100
AcDbSymbolTableRecord
100
AcDbRegAppTableRecord
  2
ACAD
 70
     0
  0
ENDTAB
  0
TABLE
  2
DIMSTYLE
  5
A
330
0
100
AcDbSymbolTable
 70
     1
100
AcDbDimStyleTable
  0
DIMSTYLE
105
27
330
A
100
AcDbSymbolTableRecord
100
AcDbDimStyleTableRecord
  2
Standard
 70
     0
178
     0
340
11
  0
ENDTAB
  0
TABLE
  2
BLOCK_RECORD
  5
1
330
0
100
AcDbSymbolTable
 70
     1
  0
BLOCK_RECORD
  5
1F
330
1
100
AcDbSymbolTableRecord
100
AcDbBlockTableRecord
  2
*Model_Space
340
22
  0
BLOCK_RECORD
  5
1B
330
1
100
AcDbSymbolTableRecord
100
AcDbBlockTableRecord
  2
*Paper_Space
340
1E
  0
BLOCK_RECORD
  5
23
330
1
100
AcDbSymbolTableRecord
100
AcDbBlockTableRecord
  2
*Paper_Space0
340
26
  0
ENDTAB
  0
ENDSEC
  0
SECTION
  2
BLOCKS
  0
BLOCK
  5
20
330
1F
100
AcDbEntity
  8
0
100
AcDbBlockBegin
  2
*Model_Space
 70
     0
 10
0.0
 20
0.0
 30
0.0
  3
*Model_Space
  1

  0
ENDBLK
  5
21
330
1F
100
AcDbEntity
  8
0
100
AcDbBlockEnd
  0
BLOCK
  5
1C
330
1B
100
AcDbEntity
 67
     1
  8
0
100
AcDbBlockBegin
  2
*Paper_Space
 70
     0
 10
0.0
 20
0.0
 30
0.0
  3
*Paper_Space
  1

  0
ENDBLK
  5
1D
330
1B
100
AcDbEntity
 67
     1
  8
0
100
AcDbBlockEnd
  0
BLOCK
  5
24
330
23
100
AcDbEntity
  8
0
100
AcDbBlockBegin
  2
*Paper_Space0
 70
     0
 10
0.0
 20
0.0
 30
0.0
  3
*Paper_Space0
  1

  0
ENDBLK
  5
25
330
23
100
AcDbEntity
  8
0
100
AcDbBlockEnd
  0
ENDSEC
  0
SECTION
  2
ENTITIES
  0
CIRCLE
  5
73
330
1F
100
AcDbEntity
  8
0
  6
Continuous
 62
     7
370
    25
100
AcDbCircle
 10
2.071
 20
-1.2924035101
 30
0.0
 40
0.0575000000000001
  0
LINE
  5
74
330
1F
100
AcDbEntity
  8
0
  6
Continuous
 62
     7
370
    25
100
AcDbLine
 10
2.8285
 20
-0.6241205736
 30
0.0
 11
2.2785
 21
-0.9416632216
 31
0.0
  0
ARC
  5
75
330
1F
100
AcDbEntity
  8
0
  6
Continuous
 62
     7
370
    25
100
AcDbCircle
 10
2.8535
 20
-0.6674218437
 30
0.0
 40
0.05
100
AcDbArc
 50
0.0
 51
120.0
  0
LINE
  5
76
330
1F
100
AcDbEntity
  8
0
  6
Continuous
 62
     7
370
    25
100
AcDbLine
 10
2.9035
 20
-1.0138320053
 30
0.0
 11
2.9035
 21
-0.6674218437
 31
0.0
  0
ARC
  5
77
330
1F
100
AcDbEntity
  8
0
  6
Continuous
 62
     7
370
    25
100
AcDbCircle
 10
2.8535
 20
-1.0138320053
 30
0.0
 40
0.0500000000000001
100
AcDbArc
 50
300.0
 51
0.0
  0
LINE
  5
78
330
1F
100
AcDbEntity
  8
0
  6
Continuous
 62
     7
370
    25
100
AcDbLine
 10
2.3285
 20
-1.3746759235
 30
0.0
 11
2.8785
 21
-1.0571332755
 31
0.0
  0
ARC
  5
79
330
1F
100
AcDbEntity
  8
0
  6
Continuous
 62
     7
370
    25
100
AcDbCircle
 10
2.3035
 20
-1.3313746533
 30
0.0
 40
0.0499999999999999
100
AcDbArc
 50
180.0
 51
300.0
  0
LINE
  5
7A
330
1F
100
AcDbEntity
  8
0
  6
Continuous
 62
     7
370
    25
100
AcDbLine
 10
2.2535
 20
-0.9849644918
 30
0.0
 11
2.2535
 21
-1.3313746533
 31
0.0
  0
ARC
  5
7B
330
1F
100
AcDbEntity
  8
0
  6
Continuous
 62
     7
370
    25
100
AcDbCircle
 10
2.3035
 20
-0.9849644918
 30
0.0
 40
0.0499999999999998
100
AcDbArc
 50
120.0
 51
180.0
  0
LINE
  5
7C
330
1F
100
AcDbEntity
  8
0
  6
Continuous
 62
     7
370
    25
100
AcDbLine
 10
1.3135
 20
-1.9606864467
 30
0.0
 11
1.8635
 21
-1.6431437987
 31
0.0
  0
ARC
  5
7D
330
1F
100
AcDbEntity
  8
0
  6
Continuous
 62
     7
370
    25
100
AcDbCircle
 10
1.2885
 20
-1.9173851765
 30
0.0
 40
0.05
100
AcDbArc
 50
180.0
 51
300.0
  0
LINE
  5
7E
330
1F
100
AcDbEntity
  8
0
  6
Continuous
 62
     7
370
    25
100
AcDbLine
 10
1.2385
 20
-1.570975015
 30
0.0
 11
1.2385
 21
-1.9173851765
 31
0.0
  0
ARC
  5
7F
330
1F
100
AcDbEntity
  8
0
  6
Continuous
 62
     7
370
    25
100
AcDbCircle
 10
1.2885
 20
-1.570975015
 30
0.0
 40
0.0500000000000001
100
AcDbArc
 50
120.0
 51
180.0
  0
LINE
  5
80
330
1F
100
AcDbEntity
  8
0
  6
Continuous
 62
     7
370
    25
100
AcDbLine
 10
1.8135
 20
-1.2101310968
 30
0.0
 11
1.2635
 21
-1.5276737448
 31
0.0
  0
ARC
  5
81
330
1F
100
AcDbEntity
  8
0
  6
Continuous
 62
     7
370
    25
100
AcDbCircle
 10
1.8385
 20
-1.253432367
 30
0.0
 40
0.0500000000000001
100
AcDbArc
 50
0.0
 51
120.0
  0
LINE
  5
82
330
1F
100
AcDbEntity
  8
0
  6
Continuous
 62
     7
370
    25
100
AcDbLine
 10
1.8885
 20
-1.5998425285
 30
0.0
 11
1.8885
 21
-1.253432367
 31
0.0
  0
ARC
  5
83
330
1F
100
AcDbEntity
  8
0
  6
Continuous
 62
     7
370
    25
100
AcDbCircle
 10
1.8385
 20
-1.5998425285
 30
0.0
 40
0.0500000000000001
100
AcDbArc
 50
300.0
 51
0.0
  0
ARC
  5
84
330
1F
100
AcDbEntity
  8
0
  6
Continuous
 62
     7
370
    25
100
AcDbCircle
 10
3.8310036805
 20
-0.5874052656
 30
0.0
 40
0.0600000000000008
100
AcDbArc
 50
252.8436430436
 51
72.8436430436
  0
LINE
  5
85
330
1F
100
AcDbEntity
  8
0
  6
Continuous
 62
     7
370
    25
100
AcDbLine
 10
3.7607521784
 20
-0.6285115481
 30
0.0
 11
3.8133048616
 21
-0.6447354654
 31
0.0
  0
ARC
  5
86
330
1F
100
AcDbEntity
  8
0
  6
Continuous
 62
     7
370
    25
100
AcDbCircle
 10
3.7784509973
 20
-0.5711813483
 30
0.0
 40
0.0600000000000015
100
AcDbArc
 50
72.8436430436
 51
252.8436430436
  0
LINE
  5
87
330
1F
100
AcDbEntity
  8
0
  6
Continuous
 62
     7
370
    25
100
AcDbLine
 10
3.8487024993
 20
-0.5300750658
 30
0.0
 11
3.7961498162
 21
-0.5138511485
 31
0.0
  0
ARC
  5
88
330
1F
100
AcDbEntity
  8
0
  6
Continuous
 62
     7
370
    25
100
AcDbCircle
 10
3.371450941
 20
-0.8301474738
 30
0.0
 40
0.0600000000000005
100
AcDbArc
 50
162.8436430436
 51
342.8436430436
  0
LINE
  5
89
330
1F
100
AcDbEntity
  8
0
  6
Continuous
 62
     7
370
    25
100
AcDbLine
 10
3.3303446585
 20
-0.7598959718
 30
0.0
 11
3.3141207412
 21
-0.812448655
 31
0.0
  0
ARC
  5
8A
330
1F
100
AcDbEntity
  8
0
  6
Continuous
 62
     7
370
    25
100
AcDbCircle
 10
3.3876748583
 20
-0.7775947907
 30
0.0
 40
0.0600000000000009
100
AcDbArc
 50
342.8436430436
 51
162.8436430436
  0
LINE
  5
8B
330
1F
100
AcDbEntity
  8
0
  6
Continuous
 62
     7
370
    25
100
AcDbLine
 10
3.4287811408
 20
-0.8478462927
 30
0.0
 11
3.4450050581
 21
-0.7952936096
 31
0.0
  0
ARC
  5
8C
330
1F
100
AcDbEntity
  8
0
  6
Continuous
 62
     7
370
    25
100
AcDbCircle
 10
3.1287087328
 20
-0.3705947344
 30
0.0
 40
0.0600000000000007
100
AcDbArc
 50
72.8436430436
 51
252.8436430436
  0
LINE
  5
8D
330
1F
100
AcDbEntity
  8
0
  6
Continuous
 62
     7
370
    25
100
AcDbLine
 10
3.1989602348
 20
-0.3294884519
 30
0.0
 11
3.1464075517
 21
-0.3132645346
 31
0.0
  0
ARC
  5
8E
330
1F
100
AcDbEntity
  8
0
  6
Continuous
 62
     7
370
    25
100
AcDbCircle
 10
3.1812614159
 20
-0.3868186517
 30
0.0
 40
0.060000000000001
100
AcDbArc
 50
252.8436430436
 51
72.8436430436
  0
LINE
  5
8F
330
1F
100
AcDbEntity
  8
0
  6
Continuous
 62
     7
370
    25
100
AcDbLine
 10
3.1110099139
 20
-0.4279249342
 30
0.0
 11
3.1635625971
 21
-0.4441488515
 31
0.0
  0
ARC
  5
90
330
1F
100
AcDbEntity
  8
0
  6
Continuous
 62
     7
370
    25
100
AcDbCircle
 10
3.5882614723
 20
-0.1278525262
 30
0.0
 40
0.0600000000000008
100
AcDbArc
 50
342.8436430436
 51
162.8436430436
  0
LINE
  5
91
330
1F
100
AcDbEntity
  8
0
  6
Continuous
 62
     7
370
    25
100
AcDbLine
 10
3.6293677548
 20
-0.1981040282
 30
0.0
 11
3.6455916721
 21
-0.145551345
 31
0.0
  0
ARC
  5
92
330
1F
100
AcDbEntity
  8
0
  6
Continuous
 62
     7
370
    25
100
AcDbCircle
 10
3.572037555
 20
-0.1804052093
 30
0.0
 40
0.0600000000000009
100
AcDbArc
 50
162.8436430436
 51
342.8436430436
  0
LINE
  5
93
330
1F
100
AcDbEntity
  8
0
  6
Continuous
 62
     7
370
    25
100
AcDbLine
 10
3.5309312725
 20
-0.1101537073
 30
0.0
 11
3.5147073551
 21
-0.1627063904
 31
0.0
  0
LINE
  5
94
330
1F
100
AcDbEntity
  8
0
  6
Continuous
 62
     7
370
    25
100
AcDbLine
 10
3.8522172973
 20
-0.9249228836
 30
0.0
 11
3.8605783197
 21
-0.9297501221
 31
0.0
  0
ARC
  5
95
330
1F
100
AcDbEntity
  8
0
  6
Continuous
 62
     7
370
    25
100
AcDbCircle
 10
3.8855783197
 20
-0.886448852
 30
0.0
 40
0.0500000000000001
100
AcDbArc
 50
240.0
 51
314.8783346851
  0
ARC
  5
96
330
1F
100
AcDbEntity
  8
0
  6
Continuous
 62
     7
370
    25
100
AcDbCircle
 10
3.4798562066
 20
-0.479
 30
0.0
 40
0.6250000000000002
100
AcDbArc
 50
314.8783346851
 51
345.1216653149
  0
ARC
  5
97
330
1F
100
AcDbEntity
  8
0
  6
Continuous
 62
     7
370
    25
100
AcDbCircle
 10
4.0355783197
 20
-0.6266412308
 30
0.0
 40
0.0500000000000001
100
AcDbArc
 50
345.1216653149
 51
60.0
  0
LINE
  5
98
330
1F
100
AcDbEntity
  8
0
  6
Continuous
 62
     7
370
    25
100
AcDbLine
 10
4.0522172973
 20
-0.5785127221
 30
0.0
 11
4.0605783197
 21
-0.5833399606
 31
0.0
  0
ARC
  5
99
330
1F
100
AcDbEntity
  8
0
  6
Continuous
 62
     7
370
    25
100
AcDbCircle
 10
4.0772172973
 20
-0.5352114519
 30
0.0
 40
0.05
100
AcDbArc
 50
174.6243183522
 51
240.0
  0
ARC
  5
9A
330
1F
100
AcDbEntity
  8
0
  6
Continuous
 62
     7
370
    25
100
AcDbCircle
 10
3.4798562066
 20
-0.479
 30
0.0
 40
0.5500000000000002
100
AcDbArc
 50
354.6243183522
 51
5.3756816478
  0
ARC
  5
9B
330
1F
100
AcDbEntity
  8
0
  6
Continuous
 62
     7
370
    25
100
AcDbCircle
 10
4.0772172973
 20
-0.4227885481
 30
0.0
 40
0.0500000000000004
100
AcDbArc
 50
120.0
 51
185.3756816478
  0
LINE
  5
9C
330
1F
100
AcDbEntity
  8
0
  6
Continuous
 62
     7
370
    25
100
AcDbLine
 10
4.0522172973
 20
-0.3794872779
 30
0.0
 11
4.0605783197
 21
-0.3746600394
 31
0.0
  0
ARC
  5
9D
330
1F
100
AcDbEntity
  8
0
  6
Continuous
 62
     7
370
    25
100
AcDbCircle
 10
4.0355783197
 20
-0.3313587692
 30
0.0
 40
0.0500000000000006
100
AcDbArc
 50
300.0
 51
14.8783346851
  0
ARC
  5
9E
330
1F
100
AcDbEntity
  8
0
  6
Continuous
 62
     7
370
    25
100
AcDbCircle
 10
3.4798562066
 20
-0.479
 30
0.0
 40
0.6250000000000003
100
AcDbArc
 50
14.8783346851
 51
45.1216653149
  0
ARC
  5
9F
330
1F
100
AcDbEntity
  8
0
  6
Continuous
 62
     7
370
    25
100
AcDbCircle
 10
3.8855783197
 20
-0.071551148
 30
0.0
 40
0.05
100
AcDbArc
 50
45.1216653149
 51
120.0
  0
LINE
  5
A0
330
1F
100
AcDbEntity
  8
0
  6
Continuous
 62
     7
370
    25
100
AcDbLine
 10
3.8522172973
 20
-0.0330771164
 30
0.0
 11
3.8605783197
 21
-0.0282498779
 31
0.0
  0
ARC
  5
A1
330
1F
100
AcDbEntity
  8
0
  6
Continuous
 62
     7
370
    25
100
AcDbCircle
 10
3.8272172973
 20
0.0102241538
 30
0.0
 40
0.0499999999999999
100
AcDbArc
 50
234.6243183522
 51
300.0
  0
ARC
  5
A2
330
1F
100
AcDbEntity
  8
0
  6
Continuous
 62
     7
370
    25
100
AcDbCircle
 10
3.4798562066
 20
-0.479
 30
0.0
 40
0.55
100
AcDbArc
 50
54.6243183522
 51
65.3756816478
  0
ARC
  5
A3
330
1F
100
AcDbEntity
  8
0
  6
Continuous
 62
     7
370
    25
100
AcDbCircle
 10
3.7298562066
 20
0.0664356057
 30
0.0
 40
0.0499999999999999
100
AcDbArc
 50
180.0
 51
245.3756816478
  0
LINE
  5
A4
330
1F
100
AcDbEntity
  8
0
  6
Continuous
 62
     7
370
    25
100
AcDbLine
 10
3.6798562066
 20
0.0664356057
 30
0.0
 11
3.6798562066
 21
0.0760900828
 31
0.0
  0
ARC
  5
A5
330
1F
100
AcDbEntity
  8
0
  6
Continuous
 62
     7
370
    25
100
AcDbCircle
 10
3.6298562066
 20
0.0760900828
 30
0.0
 40
0.0500000000000007
100
AcDbArc
 50
360.0
 51
74.8783346851
  0
ARC
  5
A6
330
1F
100
AcDbEntity
  8
0
  6
Continuous
 62
     7
370
    25
100
AcDbCircle
 10
3.4798562066
 20
-0.479
 30
0.0
 40
0.6250000000000002
100
AcDbArc
 50
74.8783346851
 51
105.1216653149
  0
ARC
  5
A7
330
1F
100
AcDbEntity
  8
0
  6
Continuous
 62
     7
370
    25
100
AcDbCircle
 10
3.3298562066
 20
0.0760900828
 30
0.0
 40
0.0500000000000001
100
AcDbArc
 50
105.1216653149
 51
180.0
  0
LINE
  5
A8
330
1F
100
AcDbEntity
  8
0
  6
Continuous
 62
     7
370
    25
100
AcDbLine
 10
3.2798562066
 20
0.0664356057
 30
0.0
 11
3.2798562066
 21
0.0760900828
 31
0.0
  0
ARC
  5
A9
330
1F
100
AcDbEntity
  8
0
  6
Continuous
 62
     7
370
    25
100
AcDbCircle
 10
3.2298562066
 20
0.0664356057
 30
0.0
 40
0.0499999999999999
100
AcDbArc
 50
294.6243183522
 51
0.0
  0
ARC
  5
AA
330
1F
100
AcDbEntity
  8
0
  6
Continuous
 62
     7
370
    25
100
AcDbCircle
 10
3.4798562066
 20
-0.479
 30
0.0
 40
0.5499999999999999
100
AcDbArc
 50
114.6243183522
 51
120.0
  0
LINE
  5
AB
330
1F
100
AcDbEntity
  8
0
  6
Continuous
 62
     7
370
    25
100
AcDbLine
 10
1.0965
 20
-1.2199460514
 30
0.0
 11
3.2048562066
 21
-0.0026860279
 31
0.0
  0
ARC
  5
AC
330
1F
100
AcDbEntity
  8
0
  6
Continuous
 62
     7
370
    25
100
AcDbCircle
 10
1.0465
 20
-1.133343511
 30
0.0
 40
0.1000000000000001
100
AcDbArc
 50
180.0
 51
300.0
  0
LINE
  5
AD
330
1F
100
AcDbEntity
  8
0
  6
Continuous
 62
     7
370
    25
100
AcDbLine
 10
0.9465
 20
0.246
 30
0.0
 11
0.9465
 21
-1.133343511
 31
0.0
  0
ARC
  5
AE
330
1F
100
AcDbEntity
  8
0
  6
Continuous
 62
     7
370
    25
100
AcDbCircle
 10
0.5715
 20
0.246
 30
0.0
 40
0.3750000000000006
100
AcDbArc
 50
0.0
 51
90.0
  0
LINE
  5
AF
330
1F
100
AcDbEntity
  8
0
  6
Continuous
 62
     7
370
    25
100
AcDbLine
 10
-0.5715
 20
0.621
 30
0.0
 11
0.5715
 21
0.621
 31
0.0
  0
ARC
  5
B0
330
1F
100
AcDbEntity
  8
0
  6
Continuous
 62
     7
370
    25
100
AcDbCircle
 10
-0.5715
 20
0.246
 30
0.0
 40
0.3750000000000006
100
AcDbArc
 50
90.0
 51
180.0
  0
LINE
  5
B1
330
1F
100
AcDbEntity
  8
0
  6
Continuous
 62
     7
370
    25
100
AcDbLine
 10
-0.9465
 20
0.246
 30
0.0
 11
-0.9465
 21
-1.133343511
 31
0.0
  0
ARC
  5
B2
330
1F
100
AcDbEntity
  8
0
  6
Continuous
 62
     7
370
    25
100
AcDbCircle
 10
-1.0465
 20
-1.133343511
 30
0.0
 40
0.1000000000000001
100
AcDbArc
 50
240.0
 51
0.0
  0
LINE
  5
B3
330
1F
100
AcDbEntity
  8
0
  6
Continuous
 62
     7
370
    25
100
AcDbLine
 10
-1.0965
 20
-1.2199460514
 30
0.0
 11
-3.2048562066
 21
-0.0026860279
 31
0.0
  0
ARC
  5
B4
330
1F
100
AcDbEntity
  8
0
  6
Continuous
 62
     7
370
    25
100
AcDbCircle
 10
-3.4798562066
 20
-0.479
 30
0.0
 40
0.5499999999999999
100
AcDbArc
 50
60.0
 51
65.3756816478
  0
ARC
  5
B5
330
1F
100
AcDbEntity
  8
0
  6
Continuous
 62
     7
370
    25
100
AcDbCircle
 10
-3.2298562066
 20
0.0664356057
 30
0.0
 40
0.0499999999999999
100
AcDbArc
 50
180.0
 51
245.3756816478
  0
LINE
  5
B6
330
1F
100
AcDbEntity
  8
0
  6
Continuous
 62
     7
370
    25
100
AcDbLine
 10
-3.2798562066
 20
0.0664356057
 30
0.0
 11
-3.2798562066
 21
0.0760900828
 31
0.0
  0
ARC
  5
B7
330
1F
100
AcDbEntity
  8
0
  6
Continuous
 62
     7
370
    25
100
AcDbCircle
 10
-3.3298562066
 20
0.0760900828
 30
0.0
 40
0.0500000000000001
100
AcDbArc
 50
0.0
 51
74.8783346851
  0
ARC
  5
B8
330
1F
100
AcDbEntity
  8
0
  6
Continuous
 62
     7
370
    25
100
AcDbCircle
 10
-3.4798562066
 20
-0.479
 30
0.0
 40
0.6250000000000002
100
AcDbArc
 50
74.8783346851
 51
105.1216653149
  0
ARC
  5
B9
330
1F
100
AcDbEntity
  8
0
  6
Continuous
 62
     7
370
    25
100
AcDbCircle
 10
-3.6298562066
 20
0.0760900828
 30
0.0
 40
0.0500000000000007
100
AcDbArc
 50
105.1216653149
 51
180.0
  0
LINE
  5
BA
330
1F
100
AcDbEntity
  8
0
  6
Continuous
 62
     7
370
    25
100
AcDbLine
 10
-3.6798562066
 20
0.0664356057
 30
0.0
 11
-3.6798562066
 21
0.0760900828
 31
0.0
  0
ARC
  5
BB
330
1F
100
AcDbEntity
  8
0
  6
Continuous
 62
     7
370
    25
100
AcDbCircle
 10
-3.7298562066
 20
0.0664356057
 30
0.0
 40
0.0499999999999999
100
AcDbArc
 50
294.6243183522
 51
360.0
  0
ARC
  5
BC
330
1F
100
AcDbEntity
  8
0
  6
Continuous
 62
     7
370
    25
100
AcDbCircle
 10
-3.4798562066
 20
-0.479
 30
0.0
 40
0.55
100
AcDbArc
 50
114.6243183522
 51
125.3756816478
  0
ARC
  5
BD
330
1F
100
AcDbEntity
  8
0
  6
Continuous
 62
     7
370
    25
100
AcDbCircle
 10
-3.8272172973
 20
0.0102241538
 30
0.0
 40
0.0499999999999999
100
AcDbArc
 50
240.0
 51
305.3756816478
  0
LINE
  5
BE
330
1F
100
AcDbEntity
  8
0
  6
Continuous
 62
     7
370
    25
100
AcDbLine
 10
-3.8522172973
 20
-0.0330771164
 30
0.0
 11
-3.8605783197
 21
-0.0282498779
 31
0.0
  0
ARC
  5
BF
330
1F
100
AcDbEntity
  8
0
  6
Continuous
 62
     7
370
    25
100
AcDbCircle
 10
-3.8855783197
 20
-0.071551148
 30
0.0
 40
0.05
100
AcDbArc
 50
60.0
 51
134.8783346851
  0
ARC
  5
C0
330
1F
100
AcDbEntity
  8
0
  6
Continuous
 62
     7
370
    25
100
AcDbCircle
 10
-3.4798562066
 20
-0.479
 30
0.0
 40
0.6250000000000003
100
AcDbArc
 50
134.8783346851
 51
165.1216653149
  0
ARC
  5
C1
330
1F
100
AcDbEntity
  8
0
  6
Continuous
 62
     7
370
    25
100
AcDbCircle
 10
-4.0355783197
 20
-0.3313587692
 30
0.0
 40
0.0500000000000006
100
AcDbArc
 50
165.1216653149
 51
240.0
  0
LINE
  5
C2
330
1F
100
AcDbEntity
  8
0
  6
Continuous
 62
     7
370
    25
100
AcDbLine
 10
-4.0522172973
 20
-0.3794872779
 30
0.0
 11
-4.0605783197
 21
-0.3746600394
 31
0.0
  0
ARC
  5
C3
330
1F
100
AcDbEntity
  8
0
  6
Continuous
 62
     7
370
    25
100
AcDbCircle
 10
-4.0772172973
 20
-0.4227885481
 30
0.0
 40
0.0500000000000004
100
AcDbArc
 50
354.6243183522
 51
60.0
  0
ARC
  5
C4
330
1F
100
AcDbEntity
  8
0
  6
Continuous
 62
     7
370
    25
100
AcDbCircle
 10
-3.4798562066
 20
-0.479
 30
0.0
 40
0.5500000000000002
100
AcDbArc
 50
174.6243183522
 51
185.3756816478
  0
ARC
  5
C5
330
1F
100
AcDbEntity
  8
0
  6
Continuous
 62
     7
370
    25
100
AcDbCircle
 10
-4.0772172973
 20
-0.5352114519
 30
0.0
 40
0.05
100
AcDbArc
 50
300.0
 51
5.3756816478
  0
LINE
  5
C6
330
1F
100
AcDbEntity
  8
0
  6
Continuous
 62
     7
370
    25
100
AcDbLine
 10
-4.0522172973
 20
-0.5785127221
 30
0.0
 11
-4.0605783197
 21
-0.5833399606
 31
0.0
  0
ARC
  5
C7
330
1F
100
AcDbEntity
  8
0
  6
Continuous
 62
     7
370
    25
100
AcDbCircle
 10
-4.0355783197
 20
-0.6266412308
 30
0.0
 40
0.0500000000000001
100
AcDbArc
 50
120.0
 51
194.8783346851
  0
ARC
  5
C8
330
1F
100
AcDbEntity
  8
0
  6
Continuous
 62
     7
370
    25
100
AcDbCircle
 10
-3.4798562066
 20
-0.479
 30
0.0
 40
0.6250000000000002
100
AcDbArc
 50
194.8783346851
 51
225.1216653149
  0
ARC
  5
C9
330
1F
100
AcDbEntity
  8
0
  6
Continuous
 62
     7
370
    25
100
AcDbCircle
 10
-3.8855783197
 20
-0.886448852
 30
0.0
 40
0.0500000000000001
100
AcDbArc
 50
225.1216653149
 51
300.0
  0
LINE
  5
CA
330
1F
100
AcDbEntity
  8
0
  6
Continuous
 62
     7
370
    25
100
AcDbLine
 10
-3.8522172973
 20
-0.9249228836
 30
0.0
 11
-3.8605783197
 21
-0.9297501221
 31
0.0
  0
ARC
  5
CB
330
1F
100
AcDbEntity
  8
0
  6
Continuous
 62
     7
370
    25
100
AcDbCircle
 10
-3.8272172973
 20
-0.9682241538
 30
0.0
 40
0.0500000000000002
100
AcDbArc
 50
54.6243183522
 51
120.0
  0
ARC
  5
CC
330
1F
100
AcDbEntity
  8
0
  6
Continuous
 62
     7
370
    25
100
AcDbCircle
 10
-3.4798562066
 20
-0.479
 30
0.0
 40
0.5499999999999998
100
AcDbArc
 50
234.6243183522
 51
240.0
  0
LINE
  5
CD
330
1F
100
AcDbEntity
  8
0
  6
Continuous
 62
     7
370
    25
100
AcDbLine
 10
-0.9965
 20
-2.5478516705
 30
0.0
 11
-3.7548562066
 21
-0.9553139721
 31
0.0
  0
ARC
  5
CE
330
1F
100
AcDbEntity
  8
0
  6
Continuous
 62
     7
370
    25
100
AcDbCircle
 10
-1.0465
 20
-2.6344542109
 30
0.0
 40
0.1000000000000003
100
AcDbArc
 50
0.0
 51
60.0
  0
LINE
  5
CF
330
1F
100
AcDbEntity
  8
0
  6
Continuous
 62
     7
370
    25
100
AcDbLine
 10
-0.9465
 20
-2.6344542109
 30
0.0
 11
-0.9465
 21
-5.2832582024
 31
0.0
  0
ARC
  5
D0
330
1F
100
AcDbEntity
  8
0
  6
Continuous
 62
     7
370
    25
100
AcDbCircle
 10
-1.0465
 20
-5.2832582024
 30
0.0
 40
0.1000000000000001
100
AcDbArc
 50
300.0
 51
0.0
  0
LINE
  5
D1
330
1F
100
AcDbEntity
  8
0
  6
Continuous
 62
     7
370
    25
100
AcDbLine
 10
-0.9965
 20
-5.3698607428
 30
0.0
 11
-3.7548562066
 21
-6.9623984412
 31
0.0
  0
ARC
  5
D2
330
1F
100
AcDbEntity
  8
0
  6
Continuous
 62
     7
370
    25
100
AcDbCircle
 10
-3.4798562066
 20
-7.4387124133
 30
0.0
 40
0.5500000000000003
100
AcDbArc
 50
120.0
 51
125.3756816478
  0
ARC
  5
D3
330
1F
100
AcDbEntity
  8
0
  6
Continuous
 62
     7
370
    25
100
AcDbCircle
 10
-3.8272172973
 20
-6.9494882594
 30
0.0
 40
0.0500000000000005
100
AcDbArc
 50
240.0
 51
305.3756816478
  0
LINE
  5
D4
330
1F
100
AcDbEntity
  8
0
  6
Continuous
 62
     7
370
    25
100
AcDbLine
 10
-3.8522172973
 20
-6.9927895296
 30
0.0
 11
-3.8605783197
 21
-6.9879622911
 31
0.0
  0
ARC
  5
D5
330
1F
100
AcDbEntity
  8
0
  6
Continuous
 62
     7
370
    25
100
AcDbCircle
 10
-3.8855783197
 20
-7.0312635613
 30
0.0
 40
0.0500000000000007
100
AcDbArc
 50
60.0
 51
134.8783346851
  0
ARC
  5
D6
330
1F
100
AcDbEntity
  8
0
  6
Continuous
 62
     7
370
    25
100
AcDbCircle
 10
-3.4798562066
 20
-7.4387124133
 30
0.0
 40
0.6250000000000006
100
AcDbArc
 50
134.8783346851
 51
165.1216653149
  0
ARC
  5
D7
330
1F
100
AcDbEntity
  8
0
  6
Continuous
 62
     7
370
    25
100
AcDbCircle
 10
-4.0355783197
 20
-7.2910711824
 30
0.0
 40
0.05
100
AcDbArc
 50
165.1216653149
 51
240.0
  0
LINE
  5
D8
330
1F
100
AcDbEntity
  8
0
  6
Continuous
 62
     7
370
    25
100
AcDbLine
 10
-4.0522172973
 20
-7.3391996911
 30
0.0
 11
-4.0605783197
 21
-7.3343724526
 31
0.0
  0
ARC
  5
D9
330
1F
100
AcDbEntity
  8
0
  6
Continuous
 62
     7
370
    25
100
AcDbCircle
 10
-4.0772172973
 20
-7.3825009613
 30
0.0
 40
0.0500000000000003
100
AcDbArc
 50
354.6243183522
 51
60.0
  0
ARC
  5
DA
330
1F
100
AcDbEntity
  8
0
  6
Continuous
 62
     7
370
    25
100
AcDbCircle
 10
-3.4798562066
 20
-7.4387124133
 30
0.0
 40
0.5500000000000002
100
AcDbArc
 50
174.6243183522
 51
185.3756816478
  0
ARC
  5
DB
330
1F
100
AcDbEntity
  8
0
  6
Continuous
 62
     7
370
    25
100
AcDbCircle
 10
-4.0772172973
 20
-7.4949238652
 30
0.0
 40
0.0500000000000004
100
AcDbArc
 50
300.0
 51
5.3756816478
  0
LINE
  5
DC
330
1F
100
AcDbEntity
  8
0
  6
Continuous
 62
     7
370
    25
100
AcDbLine
 10
-4.0522172973
 20
-7.5382251354
 30
0.0
 11
-4.0605783197
 21
-7.5430523739
 31
0.0
  0
ARC
  5
DD
330
1F
100
AcDbEntity
  8
0
  6
Continuous
 62
     7
370
    25
100
AcDbCircle
 10
-4.0355783197
 20
-7.5863536441
 30
0.0
 40
0.0500000000000005
100
AcDbArc
 50
120.0
 51
194.8783346851
  0
ARC
  5
DE
330
1F
100
AcDbEntity
  8
0
  6
Continuous
 62
     7
370
    25
100
AcDbCircle
 10
-3.4798562066
 20
-7.4387124133
 30
0.0
 40
0.6250000000000006
100
AcDbArc
 50
194.8783346851
 51
225.1216653149
  0
ARC
  5
DF
330
1F
100
AcDbEntity
  8
0
  6
Continuous
 62
     7
370
    25
100
AcDbCircle
 10
-3.8855783197
 20
-7.8461612652
 30
0.0
 40
0.0499999999999995
100
AcDbArc
 50
225.1216653149
 51
300.0
  0
LINE
  5
E0
330
1F
100
AcDbEntity
  8
0
  6
Continuous
 62
     7
370
    25
100
AcDbLine
 10
-3.8522172973
 20
-7.8846352969
 30
0.0
 11
-3.8605783197
 21
-7.8894625354
 31
0.0
  0
ARC
  5
E1
330
1F
100
AcDbEntity
  8
0
  6
Continuous
 62
     7
370
    25
100
AcDbCircle
 10
-3.8272172973
 20
-7.9279365671
 30
0.0
 40
0.0500000000000002
100
AcDbArc
 50
54.6243183522
 51
120.0
  0
ARC
  5
E2
330
1F
100
AcDbEntity
  8
0
  6
Continuous
 62
     7
370
    25
100
AcDbCircle
 10
-3.4798562066
 20
-7.4387124133
 30
0.0
 40
0.5500000000000003
100
AcDbArc
 50
234.6243183522
 51
245.3756816478
  0
ARC
  5
E3
330
1F
100
AcDbEntity
  8
0
  6
Continuous
 62
     7
370
    25
100
AcDbCircle
 10
-3.7298562066
 20
-7.984148019
 30
0.0
 40
0.0499999999999994
100
AcDbArc
 50
0.0
 51
65.3756816478
  0
LINE
  5
E4
330
1F
100
AcDbEntity
  8
0
  6
Continuous
 62
     7
370
    25
100
AcDbLine
 10
-3.6798562066
 20
-7.984148019
 30
0.0
 11
-3.6798562066
 21
-7.993802496
 31
0.0
  0
ARC
  5
E5
330
1F
100
AcDbEntity
  8
0
  6
Continuous
 62
     7
370
    25
100
AcDbCircle
 10
-3.6298562066
 20
-7.993802496
 30
0.0
 40
0.0500000000000007
100
AcDbArc
 50
180.0
 51
254.8783346851
  0
ARC
  5
E6
330
1F
100
AcDbEntity
  8
0
  6
Continuous
 62
     7
370
    25
100
AcDbCircle
 10
-3.4798562066
 20
-7.4387124133
 30
0.0
 40
0.6250000000000007
100
AcDbArc
 50
254.8783346851
 51
285.1216653149
  0
ARC
  5
E7
330
1F
100
AcDbEntity
  8
0
  6
Continuous
 62
     7
370
    25
100
AcDbCircle
 10
-3.3298562066
 20
-7.993802496
 30
0.0
 40
0.0500000000000004
100
AcDbArc
 50
285.1216653149
 51
360.0
  0
LINE
  5
E8
330
1F
100
AcDbEntity
  8
0
  6
Continuous
 62
     7
370
    25
100
AcDbLine
 10
-3.2798562066
 20
-7.984148019
 30
0.0
 11
-3.2798562066
 21
-7.993802496
 31
0.0
  0
ARC
  5
E9
330
1F
100
AcDbEntity
  8
0
  6
Continuous
 62
     7
370
    25
100
AcDbCircle
 10
-3.2298562066
 20
-7.984148019
 30
0.0
 40
0.0499999999999998
100
AcDbArc
 50
114.6243183522
 51
180.0
  0
ARC
  5
EA
330
1F
100
AcDbEntity
  8
0
  6
Continuous
 62
     7
370
    25
100
AcDbCircle
 10
-3.4798562066
 20
-7.4387124133
 30
0.0
 40
0.5499999999999999
100
AcDbArc
 50
294.6243183522
 51
300.0
  0
LINE
  5
EB
330
1F
100
AcDbEntity
  8
0
  6
Continuous
 62
     7
370
    25
100
AcDbLine
 10
-1.0965
 20
-6.6977663619
 30
0.0
 11
-3.2048562066
 21
-7.9150263853
 31
0.0
  0
ARC
  5
EC
330
1F
100
AcDbEntity
  8
0
  6
Continuous
 62
     7
370
    25
100
AcDbCircle
 10
-1.0465
 20
-6.7843689023
 30
0.0
 40
0.1000000000000004
100
AcDbArc
 50
0.0
 51
120.0
  0
LINE
  5
ED
330
1F
100
AcDbEntity
  8
0
  6
Continuous
 62
     7
370
    25
100
AcDbLine
 10
-0.9465
 20
-6.7843689023
 30
0.0
 11
-0.9465
 21
-7.5665
 31
0.0
  0
ARC
  5
EE
330
1F
100
AcDbEntity
  8
0
  6
Continuous
 62
     7
370
    25
100
AcDbCircle
 10
-0.5715
 20
-7.5665
 30
0.0
 40
0.375
100
AcDbArc
 50
180.0
 51
270.0
  0
LINE
  5
EF
330
1F
100
AcDbEntity
  8
0
  6
Continuous
 62
     7
370
    25
100
AcDbLine
 10
-0.5715
 20
-7.9415
 30
0.0
 11
0.5715
 21
-7.9415
 31
0.0
  0
ARC
  5
F0
330
1F
100
AcDbEntity
  8
0
  6
Continuous
 62
     7
370
    25
100
AcDbCircle
 10
0.5715
 20
-7.5665
 30
0.0
 40
0.375
100
AcDbArc
 50
270.0
 51
0.0
  0
LINE
  5
F1
330
1F
100
AcDbEntity
  8
0
  6
Continuous
 62
     7
370
    25
100
AcDbLine
 10
0.9465
 20
-6.7843689023
 30
0.0
 11
0.9465
 21
-7.5665
 31
0.0
  0
ARC
  5
F2
330
1F
100
AcDbEntity
  8
0
  6
Continuous
 62
     7
370
    25
100
AcDbCircle
 10
1.0465
 20
-6.7843689023
 30
0.0
 40
0.1000000000000004
100
AcDbArc
 50
60.0
 51
180.0
  0
LINE
  5
F3
330
1F
100
AcDbEntity
  8
0
  6
Continuous
 62
     7
370
    25
100
AcDbLine
 10
1.0965
 20
-6.6977663619
 30
0.0
 11
3.2048562066
 21
-7.9150263853
 31
0.0
  0
ARC
  5
F4
330
1F
100
AcDbEntity
  8
0
  6
Continuous
 62
     7
370
    25
100
AcDbCircle
 10
3.4798562066
 20
-7.4387124133
 30
0.0
 40
0.5499999999999999
100
AcDbArc
 50
240.0
 51
245.3756816478
  0
ARC
  5
F5
330
1F
100
AcDbEntity
  8
0
  6
Continuous
 62
     7
370
    25
100
AcDbCircle
 10
3.2298562066
 20
-7.984148019
 30
0.0
 40
0.0499999999999998
100
AcDbArc
 50
360.0
 51
65.3756816478
  0
LINE
  5
F6
330
1F
100
AcDbEntity
  8
0
  6
Continuous
 62
     7
370
    25
100
AcDbLine
 10
3.2798562066
 20
-7.984148019
 30
0.0
 11
3.2798562066
 21
-7.993802496
 31
0.0
  0
ARC
  5
F7
330
1F
100
AcDbEntity
  8
0
  6
Continuous
 62
     7
370
    25
100
AcDbCircle
 10
3.3298562066
 20
-7.993802496
 30
0.0
 40
0.0500000000000004
100
AcDbArc
 50
180.0
 51
254.8783346851
  0
ARC
  5
F8
330
1F
100
AcDbEntity
  8
0
  6
Continuous
 62
     7
370
    25
100
AcDbCircle
 10
3.4798562066
 20
-7.4387124133
 30
0.0
 40
0.6250000000000007
100
AcDbArc
 50
254.8783346851
 51
285.1216653149
  0
ARC
  5
F9
330
1F
100
AcDbEntity
  8
0
  6
Continuous
 62
     7
370
    25
100
AcDbCircle
 10
3.6298562066
 20
-7.993802496
 30
0.0
 40
0.0500000000000007
100
AcDbArc
 50
285.1216653149
 51
0.0
  0
LINE
  5
FA
330
1F
100
AcDbEntity
  8
0
  6
Continuous
 62
     7
370
    25
100
AcDbLine
 10
3.6798562066
 20
-7.984148019
 30
0.0
 11
3.6798562066
 21
-7.993802496
 31
0.0
  0
ARC
  5
FB
330
1F
100
AcDbEntity
  8
0
  6
Continuous
 62
     7
370
    25
100
AcDbCircle
 10
3.7298562066
 20
-7.984148019
 30
0.0
 40
0.0499999999999994
100
AcDbArc
 50
114.6243183522
 51
180.0
  0
ARC
  5
FC
330
1F
100
AcDbEntity
  8
0
  6
Continuous
 62
     7
370
    25
100
AcDbCircle
 10
3.4798562066
 20
-7.4387124133
 30
0.0
 40
0.5500000000000003
100
AcDbArc
 50
294.6243183522
 51
305.3756816478
  0
ARC
  5
FD
330
1F
100
AcDbEntity
  8
0
  6
Continuous
 62
     7
370
    25
100
AcDbCircle
 10
3.8272172973
 20
-7.9279365671
 30
0.0
 40
0.0500000000000002
100
AcDbArc
 50
60.0
 51
125.3756816478
  0
LINE
  5
FE
330
1F
100
AcDbEntity
  8
0
  6
Continuous
 62
     7
370
    25
100
AcDbLine
 10
3.8522172973
 20
-7.8846352969
 30
0.0
 11
3.8605783197
 21
-7.8894625354
 31
0.0
  0
ARC
  5
FF
330
1F
100
AcDbEntity
  8
0
  6
Continuous
 62
     7
370
    25
100
AcDbCircle
 10
3.8855783197
 20
-7.8461612652
 30
0.0
 40
0.0499999999999995
100
AcDbArc
 50
240.0
 51
314.8783346851
  0
ARC
  5
100
330
1F
100
AcDbEntity
  8
0
  6
Continuous
 62
     7
370
    25
100
AcDbCircle
 10
3.4798562066
 20
-7.4387124133
 30
0.0
 40
0.6250000000000006
100
AcDbArc
 50
314.8783346851
 51
345.1216653149
  0
ARC
  5
101
330
1F
100
AcDbEntity
  8
0
  6
Continuous
 62
     7
370
    25
100
AcDbCircle
 10
4.0355783197
 20
-7.5863536441
 30
0.0
 40
0.0500000000000005
100
AcDbArc
 50
345.1216653149
 51
60.0
  0
LINE
  5
102
330
1F
100
AcDbEntity
  8
0
  6
Continuous
 62
     7
370
    25
100
AcDbLine
 10
4.0522172973
 20
-7.5382251354
 30
0.0
 11
4.0605783197
 21
-7.5430523739
 31
0.0
  0
ARC
  5
103
330
1F
100
AcDbEntity
  8
0
  6
Continuous
 62
     7
370
    25
100
AcDbCircle
 10
4.0772172973
 20
-7.4949238652
 30
0.0
 40
0.0500000000000004
100
AcDbArc
 50
174.6243183522
 51
240.0
  0
ARC
  5
104
330
1F
100
AcDbEntity
  8
0
  6
Continuous
 62
     7
370
    25
100
AcDbCircle
 10
3.4798562066
 20
-7.4387124133
 30
0.0
 40
0.5500000000000002
100
AcDbArc
 50
354.6243183522
 51
5.3756816478
  0
ARC
  5
105
330
1F
100
AcDbEntity
  8
0
  6
Continuous
 62
     7
370
    25
100
AcDbCircle
 10
4.0772172973
 20
-7.3825009613
 30
0.0
 40
0.0500000000000003
100
AcDbArc
 50
120.0
 51
185.3756816478
  0
LINE
  5
106
330
1F
100
AcDbEntity
  8
0
  6
Continuous
 62
     7
370
    25
100
AcDbLine
 10
4.0522172973
 20
-7.3391996911
 30
0.0
 11
4.0605783197
 21
-7.3343724526
 31
0.0
  0
ARC
  5
107
330
1F
100
AcDbEntity
  8
0
  6
Continuous
 62
     7
370
    25
100
AcDbCircle
 10
4.0355783197
 20
-7.2910711824
 30
0.0
 40
0.05
100
AcDbArc
 50
300.0
 51
14.8783346851
  0
ARC
  5
108
330
1F
100
AcDbEntity
  8
0
  6
Continuous
 62
     7
370
    25
100
AcDbCircle
 10
3.4798562066
 20
-7.4387124133
 30
0.0
 40
0.6250000000000006
100
AcDbArc
 50
14.8783346851
 51
45.1216653149
  0
ARC
  5
109
330
1F
100
AcDbEntity
  8
0
  6
Continuous
 62
     7
370
    25
100
AcDbCircle
 10
3.8855783197
 20
-7.0312635613
 30
0.0
 40
0.0500000000000007
100
AcDbArc
 50
45.1216653149
 51
120.0
  0
LINE
  5
10A
330
1F
100
AcDbEntity
  8
0
  6
Continuous
 62
     7
370
    25
100
AcDbLine
 10
3.8522172973
 20
-6.9927895296
 30
0.0
 11
3.8605783197
 21
-6.9879622911
 31
0.0
  0
ARC
  5
10B
330
1F
100
AcDbEntity
  8
0
  6
Continuous
 62
     7
370
    25
100
AcDbCircle
 10
3.8272172973
 20
-6.9494882594
 30
0.0
 40
0.0500000000000005
100
AcDbArc
 50
234.6243183522
 51
300.0
  0
ARC
  5
10C
330
1F
100
AcDbEntity
  8
0
  6
Continuous
 62
     7
370
    25
100
AcDbCircle
 10
3.4798562066
 20
-7.4387124133
 30
0.0
 40
0.5500000000000003
100
AcDbArc
 50
54.6243183522
 51
60.0
  0
LINE
  5
10D
330
1F
100
AcDbEntity
  8
0
  6
Continuous
 62
     7
370
    25
100
AcDbLine
 10
0.9965
 20
-5.3698607428
 30
0.0
 11
3.7548562066
 21
-6.9623984412
 31
0.0
  0
ARC
  5
10E
330
1F
100
AcDbEntity
  8
0
  6
Continuous
 62
     7
370
    25
100
AcDbCircle
 10
1.0465
 20
-5.2832582024
 30
0.0
 40
0.1000000000000005
100
AcDbArc
 50
180.0
 51
240.0
  0
LINE
  5
10F
330
1F
100
AcDbEntity
  8
0
  6
Continuous
 62
     7
370
    25
100
AcDbLine
 10
0.9465
 20
-2.6344542109
 30
0.0
 11
0.9465
 21
-5.2832582024
 31
0.0
  0
ARC
  5
110
330
1F
100
AcDbEntity
  8
0
  6
Continuous
 62
     7
370
    25
100
AcDbCircle
 10
1.0465
 20
-2.6344542109
 30
0.0
 40
0.1000000000000003
100
AcDbArc
 50
120.0
 51
180.0
  0
LINE
  5
111
330
1F
100
AcDbEntity
  8
0
  6
Continuous
 62
     7
370
    25
100
AcDbLine
 10
0.9965
 20
-2.5478516705
 30
0.0
 11
3.7548562066
 21
-0.9553139721
 31
0.0
  0
ARC
  5
112
330
1F
100
AcDbEntity
  8
0
  6
Continuous
 62
     7
370
    25
100
AcDbCircle
 10
3.4798562066
 20
-0.479
 30
0.0
 40
0.5499999999999998
100
AcDbArc
 50
300.0
 51
305.3756816478
  0
ARC
  5
113
330
1F
100
AcDbEntity
  8
0
  6
Continuous
 62
     7
370
    25
100
AcDbCircle
 10
3.8272172973
 20
-0.9682241538
 30
0.0
 40
0.0500000000000002
100
AcDbArc
 50
60.0
 51
125.3756816478
  0
ARC
  5
114
330
1F
100
AcDbEntity
  8
0
  6
Continuous
 62
     7
370
    25
100
AcDbCircle
 10
3.5961062066
 20
-0.6803509064
 30
0.0
 40
0.0425000000000015
100
AcDbArc
 50
210.0
 51
30.0
  0
LINE
  5
115
330
1F
100
AcDbEntity
  8
0
  6
Continuous
 62
     7
370
    25
100
AcDbLine
 10
3.5214720627
 20
-0.6360807771
 30
0.0
 11
3.559300127
 21
-0.7016009064
 31
0.0
  0
ARC
  5
116
330
1F
100
AcDbEntity
  8
0
  6
Continuous
 62
     7
370
    25
100
AcDbCircle
 10
3.4798562066
 20
-0.479
 30
0.0
 40
0.1624999999999906
100
AcDbArc
 50
225.1613686066
 51
284.8386313934
  0
LINE
  5
117
330
1F
100
AcDbEntity
  8
0
  6
Continuous
 62
     7
370
    25
100
AcDbLine
 10
3.2304732679
 20
-0.6720560797
 30
0.0
 11
3.3652754296
 21
-0.5942280154
 31
0.0
  0
ARC
  5
118
330
1F
100
AcDbEntity
  8
0
  6
Continuous
 62
     7
370
    25
100
AcDbCircle
 10
3.2092232679
 20
-0.63525
 30
0.0
 40
0.0425000000000004
100
AcDbArc
 50
120.0
 51
300.0
  0
LINE
  5
119
330
1F
100
AcDbEntity
  8
0
  6
Continuous
 62
     7
370
    25
100
AcDbLine
 10
3.1879732679
 20
-0.5984439203
 30
0.0
 11
3.3227754296
 21
-0.520615856
 31
0.0
  0
ARC
  5
11A
330
1F
100
AcDbEntity
  8
0
  6
Continuous
 62
     7
370
    25
100
AcDbCircle
 10
3.4798562066
 20
-0.479
 30
0.0
 40
0.1624999999999902
100
AcDbArc
 50
135.1613686066
 51
194.8386313934
  0
LINE
  5
11B
330
1F
100
AcDbEntity
  8
0
  6
Continuous
 62
     7
370
    25
100
AcDbLine
 10
3.326800127
 20
-0.2988990936
 30
0.0
 11
3.3646281913
 21
-0.3644192229
 31
0.0
  0
ARC
  5
11C
330
1F
100
AcDbEntity
  8
0
  6
Continuous
 62
     7
370
    25
100
AcDbCircle
 10
3.3636062066
 20
-0.2776490936
 30
0.0
 40
0.0425000000000014
100
AcDbArc
 50
30.0
 51
210.0
  0
LINE
  5
11D
330
1F
100
AcDbEntity
  8
0
  6
Continuous
 62
     7
370
    25
100
AcDbLine
 10
3.4004122863
 20
-0.2563990936
 30
0.0
 11
3.4382403506
 21
-0.3219192229
 31
0.0
  0
ARC
  5
11E
330
1F
100
AcDbEntity
  8
0
  6
Continuous
 62
     7
370
    25
100
AcDbCircle
 10
3.4798562066
 20
-0.479
 30
0.0
 40
0.1624999999999907
100
AcDbArc
 50
45.1613686066
 51
104.8386313934
  0
LINE
  5
11F
330
1F
100
AcDbEntity
  8
0
  6
Continuous
 62
     7
370
    25
100
AcDbLine
 10
3.5944369837
 20
-0.3637719846
 30
0.0
 11
3.7292391453
 21
-0.2859439203
 31
0.0
  0
ARC
  5
120
330
1F
100
AcDbEntity
  8
0
  6
Continuous
 62
     7
370
    25
100
AcDbCircle
 10
3.7504891453
 20
-0.32275
 30
0.0
 40
0.0424999999999999
100
AcDbArc
 50
300.0
 51
120.0
  0
LINE
  5
121
330
1F
100
AcDbEntity
  8
0
  6
Continuous
 62
     7
370
    25
100
AcDbLine
 10
3.6369369837
 20
-0.437384144
 30
0.0
 11
3.7717391453
 21
-0.3595560797
 31
0.0
  0
ARC
  5
122
330
1F
100
AcDbEntity
  8
0
  6
Continuous
 62
     7
370
    25
100
AcDbCircle
 10
3.4798562066
 20
-0.479
 30
0.0
 40
0.1624999999999906
100
AcDbArc
 50
315.1613686066
 51
14.8386313934
  0
LINE
  5
123
330
1F
100
AcDbEntity
  8
0
  6
Continuous
 62
     7
370
    25
100
AcDbLine
 10
3.595084222
 20
-0.5935807771
 30
0.0
 11
3.6329122863
 21
-0.6591009064
 31
0.0
  0
CIRCLE
  5
124
330
1F
100
AcDbEntity
  8
0
  6
Continuous
 62
     7
370
    25
100
AcDbCircle
 10
0.77
 20
-7.5915
 30
0.0
 40
0.0324999999999998
  0
CIRCLE
  5
125
330
1F
100
AcDbEntity
  8
0
  6
Continuous
 62
     7
370
    25
100
AcDbCircle
 10
-0.77
 20
0.271
 30
0.0
 40
0.0325
  0
CIRCLE
  5
126
330
1F
100
AcDbEntity
  8
0
  6
Continuous
 62
     7
370
    25
100
AcDbCircle
 10
0.77
 20
0.271
 30
0.0
 40
0.0325
  0
CIRCLE
  5
127
330
1F
100
AcDbEntity
  8
0
  6
Continuous
 62
     7
370
    25
100
AcDbCircle
 10
-0.6
 20
-4.5705
 30
0.0
 40
0.0500000000000007
  0
LINE
  5
128
330
1F
100
AcDbEntity
  8
0
  6
Continuous
 62
     7
370
    25
100
AcDbLine
 10
-0.8235
 20
-3.077
 30
0.0
 11
-0.8235
 21
-2.682
 31
0.0
  0
ARC
  5
129
330
1F
100
AcDbEntity
  8
0
  6
Continuous
 62
     7
370
    25
100
AcDbCircle
 10
-0.7665
 20
-2.682
 30
0.0
 40
0.0569999999999999
100
AcDbArc
 50
0.0
 51
180.0
  0
LINE
  5
12A
330
1F
100
AcDbEntity
  8
0
  6
Continuous
 62
     7
370
    25
100
AcDbLine
 10
-0.7095
 20
-2.682
 30
0.0
 11
-0.7095
 21
-3.077
 31
0.0
  0
ARC
  5
12B
330
1F
100
AcDbEntity
  8
0
  6
Continuous
 62
     7
370
    25
100
AcDbCircle
 10
-0.7665
 20
-3.077
 30
0.0
 40
0.0570000000000001
100
AcDbArc
 50
180.0
 51
0.0
  0
ARC
  5
12C
330
1F
100
AcDbEntity
  8
0
  6
Continuous
 62
     7
370
    25
100
AcDbCircle
 10
0.7665
 20
-2.682
 30
0.0
 40
0.0569999999999999
100
AcDbArc
 50
0.0
 51
180.0
  0
LINE
  5
12D
330
1F
100
AcDbEntity
  8
0
  6
Continuous
 62
     7
370
    25
100
AcDbLine
 10
0.8235
 20
-3.077
 30
0.0
 11
0.8235
 21
-2.682
 31
0.0
  0
ARC
  5
12E
330
1F
100
AcDbEntity
  8
0
  6
Continuous
 62
     7
370
    25
100
AcDbCircle
 10
0.7665
 20
-3.077
 30
0.0
 40
0.0570000000000001
100
AcDbArc
 50
180.0
 51
0.0
  0
LINE
  5
12F
330
1F
100
AcDbEntity
  8
0
  6
Continuous
 62
     7
370
    25
100
AcDbLine
 10
0.7095
 20
-2.682
 30
0.0
 11
0.7095
 21
-3.077
 31
0.0
  0
ARC
  5
130
330
1F
100
AcDbEntity
  8
0
  6
Continuous
 62
     7
370
    25
100
AcDbCircle
 10
-0.3205
 20
-2.984
 30
0.0
 40
0.15
100
AcDbArc
 50
180.0
 51
270.0
  0
LINE
  5
131
330
1F
100
AcDbEntity
  8
0
  6
Continuous
 62
     7
370
    25
100
AcDbLine
 10
-0.4705
 20
-2.775
 30
0.0
 11
-0.4705
 21
-2.984
 31
0.0
  0
ARC
  5
132
330
1F
100
AcDbEntity
  8
0
  6
Continuous
 62
     7
370
    25
100
AcDbCircle
 10
-0.3205
 20
-2.775
 30
0.0
 40
0.15
100
AcDbArc
 50
90.0
 51
180.0
  0
LINE
  5
133
330
1F
100
AcDbEntity
  8
0
  6
Continuous
 62
     7
370
    25
100
AcDbLine
 10
0.3205
 20
-2.625
 30
0.0
 11
-0.3205
 21
-2.625
 31
0.0
  0
ARC
  5
134
330
1F
100
AcDbEntity
  8
0
  6
Continuous
 62
     7
370
    25
100
AcDbCircle
 10
0.3205
 20
-2.775
 30
0.0
 40
0.1499999999999999
100
AcDbArc
 50
0.0
 51
90.0
  0
LINE
  5
135
330
1F
100
AcDbEntity
  8
0
  6
Continuous
 62
     7
370
    25
100
AcDbLine
 10
0.4705
 20
-2.984
 30
0.0
 11
0.4705
 21
-2.775
 31
0.0
  0
ARC
  5
136
330
1F
100
AcDbEntity
  8
0
  6
Continuous
 62
     7
370
    25
100
AcDbCircle
 10
0.3205
 20
-2.984
 30
0.0
 40
0.1500000000000001
100
AcDbArc
 50
270.0
 51
0.0
  0
LINE
  5
137
330
1F
100
AcDbEntity
  8
0
  6
Continuous
 62
     7
370
    25
100
AcDbLine
 10
-0.3205
 20
-3.134
 30
0.0
 11
0.3205
 21
-3.134
 31
0.0
  0
LINE
  5
138
330
1F
100
AcDbEntity
  8
0
  6
Continuous
 62
     7
370
    25
100
AcDbLine
 10
-0.8235
 20
-1.507
 30
0.0
 11
-0.8235
 21
-2.093
 31
0.0
  0
ARC
  5
139
330
1F
100
AcDbEntity
  8
0
  6
Continuous
 62
     7
370
    25
100
AcDbCircle
 10
-0.7665
 20
-1.507
 30
0.0
 40
0.0569999999999999
100
AcDbArc
 50
0.0
 51
180.0
  0
LINE
  5
13A
330
1F
100
AcDbEntity
  8
0
  6
Continuous
 62
     7
370
    25
100
AcDbLine
 10
-0.7095
 20
-1.507
 30
0.0
 11
-0.7095
 21
-2.093
 31
0.0
  0
ARC
  5
13B
330
1F
100
AcDbEntity
  8
0
  6
Continuous
 62
     7
370
    25
100
AcDbCircle
 10
-0.7665
 20
-2.093
 30
0.0
 40
0.0569999999999999
100
AcDbArc
 50
180.0
 51
0.0
  0
ARC
  5
13C
330
1F
100
AcDbEntity
  8
0
  6
Continuous
 62
     7
370
    25
100
AcDbCircle
 10
0.7665
 20
-1.507
 30
0.0
 40
0.0569999999999999
100
AcDbArc
 50
0.0
 51
180.0
  0
LINE
  5
13D
330
1F
100
AcDbEntity
  8
0
  6
Continuous
 62
     7
370
    25
100
AcDbLine
 10
0.8235
 20
-1.507
 30
0.0
 11
0.8235
 21
-2.093
 31
0.0
  0
ARC
  5
13E
330
1F
100
AcDbEntity
  8
0
  6
Continuous
 62
     7
370
    25
100
AcDbCircle
 10
0.7665
 20
-2.093
 30
0.0
 40
0.0569999999999999
100
AcDbArc
 50
180.0
 51
0.0
  0
LINE
  5
13F
330
1F
100
AcDbEntity
  8
0
  6
Continuous
 62
     7
370
    25
100
AcDbLine
 10
0.7095
 20
-1.507
 30
0.0
 11
0.7095
 21
-2.093
 31
0.0
  0
ARC
  5
140
330
1F
100
AcDbEntity
  8
0
  6
Continuous
 62
     7
370
    25
100
AcDbCircle
 10
-0.3205
 20
-1.0
 30
0.0
 40
0.1500000000000001
100
AcDbArc
 50
180.0
 51
270.0
  0
LINE
  5
141
330
1F
100
AcDbEntity
  8
0
  6
Continuous
 62
     7
370
    25
100
AcDbLine
 10
-0.4705
 20
-0.6
 30
0.0
 11
-0.4705
 21
-1.0
 31
0.0
  0
ARC
  5
142
330
1F
100
AcDbEntity
  8
0
  6
Continuous
 62
     7
370
    25
100
AcDbCircle
 10
-0.3205
 20
-0.6
 30
0.0
 40
0.15
100
AcDbArc
 50
90.0
 51
180.0
  0
LINE
  5
143
330
1F
100
AcDbEntity
  8
0
  6
Continuous
 62
     7
370
    25
100
AcDbLine
 10
0.3205
 20
-0.45
 30
0.0
 11
-0.3205
 21
-0.45
 31
0.0
  0
ARC
  5
144
330
1F
100
AcDbEntity
  8
0
  6
Continuous
 62
     7
370
    25
100
AcDbCircle
 10
0.3205
 20
-0.6
 30
0.0
 40
0.15
100
AcDbArc
 50
0.0
 51
90.0
  0
LINE
  5
145
330
1F
100
AcDbEntity
  8
0
  6
Continuous
 62
     7
370
    25
100
AcDbLine
 10
0.4705
 20
-1.0
 30
0.0
 11
0.4705
 21
-0.6
 31
0.0
  0
ARC
  5
146
330
1F
100
AcDbEntity
  8
0
  6
Continuous
 62
     7
370
    25
100
AcDbCircle
 10
0.3205
 20
-1.0
 30
0.0
 40
0.1500000000000001
100
AcDbArc
 50
270.0
 51
0.0
  0
LINE
  5
147
330
1F
100
AcDbEntity
  8
0
  6
Continuous
 62
     7
370
    25
100
AcDbLine
 10
-0.3205
 20
-1.15
 30
0.0
 11
0.3205
 21
-1.15
 31
0.0
  0
LINE
  5
148
330
1F
100
AcDbEntity
  8
0
  6
Continuous
 62
     7
370
    25
100
AcDbLine
 10
-0.51
 20
-0.16875
 30
0.0
 11
-0.51
 21
-0.23125
 31
0.0
  0
ARC
  5
149
330
1F
100
AcDbEntity
  8
0
  6
Continuous
 62
     7
370
    25
100
AcDbCircle
 10
-0.47875
 20
-0.16875
 30
0.0
 40
0.03125
100
AcDbArc
 50
0.0
 51
180.0
  0
LINE
  5
14A
330
1F
100
AcDbEntity
  8
0
  6
Continuous
 62
     7
370
    25
100
AcDbLine
 10
-0.2525
 20
-0.16875
 30
0.0
 11
-0.4475
 21
-0.16875
 31
0.0
  0
ARC
  5
14B
330
1F
100
AcDbEntity
  8
0
  6
Continuous
 62
     7
370
    25
100
AcDbCircle
 10
-0.22125
 20
-0.16875
 30
0.0
 40
0.03125
100
AcDbArc
 50
0.0
 51
180.0
  0
LINE
  5
14C
330
1F
100
AcDbEntity
  8
0
  6
Continuous
 62
     7
370
    25
100
AcDbLine
 10
-0.19
 20
-0.16875
 30
0.0
 11
-0.19
 21
-0.23125
 31
0.0
  0
ARC
  5
14D
330
1F
100
AcDbEntity
  8
0
  6
Continuous
 62
     7
370
    25
100
AcDbCircle
 10
-0.22125
 20
-0.23125
 30
0.0
 40
0.03125
100
AcDbArc
 50
180.0
 51
0.0
  0
LINE
  5
14E
330
1F
100
AcDbEntity
  8
0
  6
Continuous
 62
     7
370
    25
100
AcDbLine
 10
-0.2525
 20
-0.23125
 30
0.0
 11
-0.4475
 21
-0.23125
 31
0.0
  0
ARC
  5
14F
330
1F
100
AcDbEntity
  8
0
  6
Continuous
 62
     7
370
    25
100
AcDbCircle
 10
-0.47875
 20
-0.23125
 30
0.0
 40
0.03125
100
AcDbArc
 50
180.0
 51
0.0
  0
LINE
  5
150
330
1F
100
AcDbEntity
  8
0
  6
Continuous
 62
     7
370
    25
100
AcDbLine
 10
0.19
 20
-0.16875
 30
0.0
 11
0.19
 21
-0.23125
 31
0.0
  0
ARC
  5
151
330
1F
100
AcDbEntity
  8
0
  6
Continuous
 62
     7
370
    25
100
AcDbCircle
 10
0.22125
 20
-0.16875
 30
0.0
 40
0.0312500000000001
100
AcDbArc
 50
0.0
 51
180.0
  0
LINE
  5
152
330
1F
100
AcDbEntity
  8
0
  6
Continuous
 62
     7
370
    25
100
AcDbLine
 10
0.2525
 20
-0.16875
 30
0.0
 11
0.4475
 21
-0.16875
 31
0.0
  0
ARC
  5
153
330
1F
100
AcDbEntity
  8
0
  6
Continuous
 62
     7
370
    25
100
AcDbCircle
 10
0.47875
 20
-0.16875
 30
0.0
 40
0.03125
100
AcDbArc
 50
0.0
 51
180.0
  0
LINE
  5
154
330
1F
100
AcDbEntity
  8
0
  6
Continuous
 62
     7
370
    25
100
AcDbLine
 10
0.51
 20
-0.16875
 30
0.0
 11
0.51
 21
-0.23125
 31
0.0
  0
ARC
  5
155
330
1F
100
AcDbEntity
  8
0
  6
Continuous
 62
     7
370
    25
100
AcDbCircle
 10
0.47875
 20
-0.23125
 30
0.0
 40
0.03125
100
AcDbArc
 50
180.0
 51
0.0
  0
LINE
  5
156
330
1F
100
AcDbEntity
  8
0
  6
Continuous
 62
     7
370
    25
100
AcDbLine
 10
0.2525
 20
-0.23125
 30
0.0
 11
0.4475
 21
-0.23125
 31
0.0
  0
ARC
  5
157
330
1F
100
AcDbEntity
  8
0
  6
Continuous
 62
     7
370
    25
100
AcDbCircle
 10
0.22125
 20
-0.23125
 30
0.0
 40
0.03125
100
AcDbArc
 50
180.0
 51
0.0
  0
CIRCLE
  5
158
330
1F
100
AcDbEntity
  8
0
  6
Continuous
 62
     7
370
    25
100
AcDbCircle
 10
-0.825
 20
-2.3875
 30
0.0
 40
0.0499999999999998
  0
CIRCLE
  5
159
330
1F
100
AcDbEntity
  8
0
  6
Continuous
 62
     7
370
    25
100
AcDbCircle
 10
0.825
 20
-2.3875
 30
0.0
 40
0.0499999999999998
  0
CIRCLE
  5
15A
330
1F
100
AcDbEntity
  8
0
  6
Continuous
 62
     7
370
    25
100
AcDbCircle
 10
-0.71
 20
-0.2
 30
0.0
 40
0.0500000000000001
  0
CIRCLE
  5
15B
330
1F
100
AcDbEntity
  8
0
  6
Continuous
 62
     7
370
    25
100
AcDbCircle
 10
0.71
 20
-0.2
 30
0.0
 40
0.0500000000000001
  0
CIRCLE
  5
15C
330
1F
100
AcDbEntity
  8
0
  6
Continuous
 62
     7
370
    25
100
AcDbCircle
 10
-0.825
 20
-5.537
 30
0.0
 40
0.0500000000000016
  0
CIRCLE
  5
15D
330
1F
100
AcDbEntity
  8
0
  6
Continuous
 62
     7
370
    25
100
AcDbCircle
 10
0.825
 20
-5.537
 30
0.0
 40
0.0500000000000016
  0
ARC
  5
15E
330
1F
100
AcDbEntity
  8
0
  6
Continuous
 62
     7
370
    25
100
AcDbCircle
 10
0.7665
 20
-0.507
 30
0.0
 40
0.0569999999999999
100
AcDbArc
 50
0.0
 51
180.0
  0
LINE
  5
15F
330
1F
100
AcDbEntity
  8
0
  6
Continuous
 62
     7
370
    25
100
AcDbLine
 10
0.8235
 20
-0.507
 30
0.0
 11
0.8235
 21
-1.093
 31
0.0
  0
ARC
  5
160
330
1F
100
AcDbEntity
  8
0
  6
Continuous
 62
     7
370
    25
100
AcDbCircle
 10
0.7665
 20
-1.093
 30
0.0
 40
0.0569999999999999
100
AcDbArc
 50
180.0
 51
0.0
  0
LINE
  5
161
330
1F
100
AcDbEntity
  8
0
  6
Continuous
 62
     7
370
    25
100
AcDbLine
 10
0.7095
 20
-0.507
 30
0.0
 11
0.7095
 21
-1.093
 31
0.0
  0
LINE
  5
162
330
1F
100
AcDbEntity
  8
0
  6
Continuous
 62
     7
370
    25
100
AcDbLine
 10
-0.8235
 20
-0.507
 30
0.0
 11
-0.8235
 21
-1.093
 31
0.0
  0
ARC
  5
163
330
1F
100
AcDbEntity
  8
0
  6
Continuous
 62
     7
370
    25
100
AcDbCircle
 10
-0.7665
 20
-0.507
 30
0.0
 40
0.0569999999999999
100
AcDbArc
 50
0.0
 51
180.0
  0
LINE
  5
164
330
1F
100
AcDbEntity
  8
0
  6
Continuous
 62
     7
370
    25
100
AcDbLine
 10
-0.7095
 20
-0.507
 30
0.0
 11
-0.7095
 21
-1.093
 31
0.0
  0
ARC
  5
165
330
1F
100
AcDbEntity
  8
0
  6
Continuous
 62
     7
370
    25
100
AcDbCircle
 10
-0.7665
 20
-1.093
 30
0.0
 40
0.0569999999999999
100
AcDbArc
 50
180.0
 51
0.0
  0
ARC
  5
166
330
1F
100
AcDbEntity
  8
0
  6
Continuous
 62
     7
370
    25
100
AcDbCircle
 10
-0.3205
 20
-2.0
 30
0.0
 40
0.15
100
AcDbArc
 50
180.0
 51
270.0
  0
LINE
  5
167
330
1F
100
AcDbEntity
  8
0
  6
Continuous
 62
     7
370
    25
100
AcDbLine
 10
-0.4705
 20
-1.6
 30
0.0
 11
-0.4705
 21
-2.0
 31
0.0
  0
ARC
  5
168
330
1F
100
AcDbEntity
  8
0
  6
Continuous
 62
     7
370
    25
100
AcDbCircle
 10
-0.3205
 20
-1.6
 30
0.0
 40
0.15
100
AcDbArc
 50
90.0
 51
180.0
  0
LINE
  5
169
330
1F
100
AcDbEntity
  8
0
  6
Continuous
 62
     7
370
    25
100
AcDbLine
 10
0.3205
 20
-1.45
 30
0.0
 11
-0.3205
 21
-1.45
 31
0.0
  0
ARC
  5
16A
330
1F
100
AcDbEntity
  8
0
  6
Continuous
 62
     7
370
    25
100
AcDbCircle
 10
0.3205
 20
-1.6
 30
0.0
 40
0.15
100
AcDbArc
 50
0.0
 51
90.0
  0
LINE
  5
16B
330
1F
100
AcDbEntity
  8
0
  6
Continuous
 62
     7
370
    25
100
AcDbLine
 10
0.4705
 20
-2.0
 30
0.0
 11
0.4705
 21
-1.6
 31
0.0
  0
ARC
  5
16C
330
1F
100
AcDbEntity
  8
0
  6
Continuous
 62
     7
370
    25
100
AcDbCircle
 10
0.3205
 20
-2.0
 30
0.0
 40
0.1499999999999999
100
AcDbArc
 50
270.0
 51
0.0
  0
LINE
  5
16D
330
1F
100
AcDbEntity
  8
0
  6
Continuous
 62
     7
370
    25
100
AcDbLine
 10
-0.3205
 20
-2.15
 30
0.0
 11
0.3205
 21
-2.15
 31
0.0
  0
ARC
  5
16E
330
1F
100
AcDbEntity
  8
0
  6
Continuous
 62
     7
370
    25
100
AcDbCircle
 10
0.7665
 20
-3.682
 30
0.0
 40
0.0569999999999999
100
AcDbArc
 50
0.0
 51
180.0
  0
LINE
  5
16F
330
1F
100
AcDbEntity
  8
0
  6
Continuous
 62
     7
370
    25
100
AcDbLine
 10
0.8235
 20
-3.682
 30
0.0
 11
0.8235
 21
-4.268
 31
0.0
  0
ARC
  5
170
330
1F
100
AcDbEntity
  8
0
  6
Continuous
 62
     7
370
    25
100
AcDbCircle
 10
0.7665
 20
-4.268
 30
0.0
 40
0.0569999999999999
100
AcDbArc
 50
180.0
 51
0.0
  0
LINE
  5
171
330
1F
100
AcDbEntity
  8
0
  6
Continuous
 62
     7
370
    25
100
AcDbLine
 10
0.7095
 20
-3.682
 30
0.0
 11
0.7095
 21
-4.268
 31
0.0
  0
LINE
  5
172
330
1F
100
AcDbEntity
  8
0
  6
Continuous
 62
     7
370
    25
100
AcDbLine
 10
-0.8235
 20
-3.682
 30
0.0
 11
-0.8235
 21
-4.268
 31
0.0
  0
ARC
  5
173
330
1F
100
AcDbEntity
  8
0
  6
Continuous
 62
     7
370
    25
100
AcDbCircle
 10
-0.7665
 20
-3.682
 30
0.0
 40
0.0569999999999999
100
AcDbArc
 50
0.0
 51
180.0
  0
LINE
  5
174
330
1F
100
AcDbEntity
  8
0
  6
Continuous
 62
     7
370
    25
100
AcDbLine
 10
-0.7095
 20
-3.682
 30
0.0
 11
-0.7095
 21
-4.268
 31
0.0
  0
ARC
  5
175
330
1F
100
AcDbEntity
  8
0
  6
Continuous
 62
     7
370
    25
100
AcDbCircle
 10
-0.7665
 20
-4.268
 30
0.0
 40
0.0569999999999999
100
AcDbArc
 50
180.0
 51
0.0
  0
CIRCLE
  5
176
330
1F
100
AcDbEntity
  8
0
  6
Continuous
 62
     7
370
    25
100
AcDbCircle
 10
0.6
 20
-3.3795
 30
0.0
 40
0.0500000000000003
  0
CIRCLE
  5
177
330
1F
100
AcDbEntity
  8
0
  6
Continuous
 62
     7
370
    25
100
AcDbCircle
 10
-0.6
 20
-3.3795
 30
0.0
 40
0.0500000000000003
  0
CIRCLE
  5
178
330
1F
100
AcDbEntity
  8
0
  6
Continuous
 62
     7
370
    25
100
AcDbCircle
 10
0.6
 20
-4.5705
 30
0.0
 40
0.0500000000000007
  0
ARC
  5
179
330
1F
100
AcDbEntity
  8
0
  6
Continuous
 62
     7
370
    25
100
AcDbCircle
 10
-0.3205
 20
-4.993
 30
0.0
 40
0.1500000000000004
100
AcDbArc
 50
180.0
 51
270.0
  0
LINE
  5
17A
330
1F
100
AcDbEntity
  8
0
  6
Continuous
 62
     7
370
    25
100
AcDbLine
 10
-0.4705
 20
-4.784
 30
0.0
 11
-0.4705
 21
-4.993
 31
0.0
  0
ARC
  5
17B
330
1F
100
AcDbEntity
  8
0
  6
Continuous
 62
     7
370
    25
100
AcDbCircle
 10
-0.3205
 20
-4.784
 30
0.0
 40
0.15
100
AcDbArc
 50
90.0
 51
180.0
  0
LINE
  5
17C
330
1F
100
AcDbEntity
  8
0
  6
Continuous
 62
     7
370
    25
100
AcDbLine
 10
0.3205
 20
-4.634
 30
0.0
 11
-0.3205
 21
-4.634
 31
0.0
  0
ARC
  5
17D
330
1F
100
AcDbEntity
  8
0
  6
Continuous
 62
     7
370
    25
100
AcDbCircle
 10
0.3205
 20
-4.784
 30
0.0
 40
0.1499999999999999
100
AcDbArc
 50
0.0
 51
90.0
  0
LINE
  5
17E
330
1F
100
AcDbEntity
  8
0
  6
Continuous
 62
     7
370
    25
100
AcDbLine
 10
0.4705
 20
-4.993
 30
0.0
 11
0.4705
 21
-4.784
 31
0.0
  0
ARC
  5
17F
330
1F
100
AcDbEntity
  8
0
  6
Continuous
 62
     7
370
    25
100
AcDbCircle
 10
0.3205
 20
-4.993
 30
0.0
 40
0.1500000000000004
100
AcDbArc
 50
270.0
 51
0.0
  0
LINE
  5
180
330
1F
100
AcDbEntity
  8
0
  6
Continuous
 62
     7
370
    25
100
AcDbLine
 10
-0.3205
 20
-5.143
 30
0.0
 11
0.3205
 21
-5.143
 31
0.0
  0
ARC
  5
181
330
1F
100
AcDbEntity
  8
0
  6
Continuous
 62
     7
370
    25
100
AcDbCircle
 10
-0.3205
 20
-5.819
 30
0.0
 40
0.1500000000000004
100
AcDbArc
 50
180.0
 51
270.0
  0
LINE
  5
182
330
1F
100
AcDbEntity
  8
0
  6
Continuous
 62
     7
370
    25
100
AcDbLine
 10
-0.4705
 20
-5.61
 30
0.0
 11
-0.4705
 21
-5.819
 31
0.0
  0
ARC
  5
183
330
1F
100
AcDbEntity
  8
0
  6
Continuous
 62
     7
370
    25
100
AcDbCircle
 10
-0.3205
 20
-5.61
 30
0.0
 40
0.15
100
AcDbArc
 50
90.0
 51
180.0
  0
LINE
  5
184
330
1F
100
AcDbEntity
  8
0
  6
Continuous
 62
     7
370
    25
100
AcDbLine
 10
0.3205
 20
-5.46
 30
0.0
 11
-0.3205
 21
-5.46
 31
0.0
  0
ARC
  5
185
330
1F
100
AcDbEntity
  8
0
  6
Continuous
 62
     7
370
    25
100
AcDbCircle
 10
0.3205
 20
-5.61
 30
0.0
 40
0.1499999999999999
100
AcDbArc
 50
0.0
 51
90.0
  0
LINE
  5
186
330
1F
100
AcDbEntity
  8
0
  6
Continuous
 62
     7
370
    25
100
AcDbLine
 10
0.4705
 20
-5.819
 30
0.0
 11
0.4705
 21
-5.61
 31
0.0
  0
ARC
  5
187
330
1F
100
AcDbEntity
  8
0
  6
Continuous
 62
     7
370
    25
100
AcDbCircle
 10
0.3205
 20
-5.819
 30
0.0
 40
0.1500000000000004
100
AcDbArc
 50
270.0
 51
0.0
  0
LINE
  5
188
330
1F
100
AcDbEntity
  8
0
  6
Continuous
 62
     7
370
    25
100
AcDbLine
 10
-0.3205
 20
-5.969
 30
0.0
 11
0.3205
 21
-5.969
 31
0.0
  0
ARC
  5
189
330
1F
100
AcDbEntity
  8
0
  6
Continuous
 62
     7
370
    25
100
AcDbCircle
 10
-0.3205
 20
-6.645
 30
0.0
 40
0.1500000000000004
100
AcDbArc
 50
180.0
 51
270.0
  0
LINE
  5
18A
330
1F
100
AcDbEntity
  8
0
  6
Continuous
 62
     7
370
    25
100
AcDbLine
 10
-0.4705
 20
-6.436
 30
0.0
 11
-0.4705
 21
-6.645
 31
0.0
  0
ARC
  5
18B
330
1F
100
AcDbEntity
  8
0
  6
Continuous
 62
     7
370
    25
100
AcDbCircle
 10
-0.3205
 20
-6.436
 30
0.0
 40
0.1500000000000004
100
AcDbArc
 50
90.0
 51
180.0
  0
LINE
  5
18C
330
1F
100
AcDbEntity
  8
0
  6
Continuous
 62
     7
370
    25
100
AcDbLine
 10
0.3205
 20
-6.286
 30
0.0
 11
-0.3205
 21
-6.286
 31
0.0
  0
ARC
  5
18D
330
1F
100
AcDbEntity
  8
0
  6
Continuous
 62
     7
370
    25
100
AcDbCircle
 10
0.3205
 20
-6.436
 30
0.0
 40
0.1500000000000004
100
AcDbArc
 50
0.0
 51
90.0
  0
LINE
  5
18E
330
1F
100
AcDbEntity
  8
0
  6
Continuous
 62
     7
370
    25
100
AcDbLine
 10
0.4705
 20
-6.645
 30
0.0
 11
0.4705
 21
-6.436
 31
0.0
  0
ARC
  5
18F
330
1F
100
AcDbEntity
  8
0
  6
Continuous
 62
     7
370
    25
100
AcDbCircle
 10
0.3205
 20
-6.645
 30
0.0
 40
0.1500000000000004
100
AcDbArc
 50
270.0
 51
0.0
  0
LINE
  5
190
330
1F
100
AcDbEntity
  8
0
  6
Continuous
 62
     7
370
    25
100
AcDbLine
 10
-0.3205
 20
-6.795
 30
0.0
 11
0.3205
 21
-6.795
 31
0.0
  0
ARC
  5
191
330
1F
100
AcDbEntity
  8
0
  6
Continuous
 62
     7
370
    25
100
AcDbCircle
 10
-0.3205
 20
-7.471
 30
0.0
 40
0.1500000000000004
100
AcDbArc
 50
180.0
 51
270.0
  0
LINE
  5
192
330
1F
100
AcDbEntity
  8
0
  6
Continuous
 62
     7
370
    25
100
AcDbLine
 10
-0.4705
 20
-7.262
 30
0.0
 11
-0.4705
 21
-7.471
 31
0.0
  0
ARC
  5
193
330
1F
100
AcDbEntity
  8
0
  6
Continuous
 62
     7
370
    25
100
AcDbCircle
 10
-0.3205
 20
-7.262
 30
0.0
 40
0.1500000000000004
100
AcDbArc
 50
90.0
 51
180.0
  0
LINE
  5
194
330
1F
100
AcDbEntity
  8
0
  6
Continuous
 62
     7
370
    25
100
AcDbLine
 10
0.3205
 20
-7.112
 30
0.0
 11
-0.3205
 21
-7.112
 31
0.0
  0
ARC
  5
195
330
1F
100
AcDbEntity
  8
0
  6
Continuous
 62
     7
370
    25
100
AcDbCircle
 10
0.3205
 20
-7.262
 30
0.0
 40
0.1500000000000004
100
AcDbArc
 50
0.0
 51
90.0
  0
LINE
  5
196
330
1F
100
AcDbEntity
  8
0
  6
Continuous
 62
     7
370
    25
100
AcDbLine
 10
0.4705
 20
-7.471
 30
0.0
 11
0.4705
 21
-7.262
 31
0.0
  0
ARC
  5
197
330
1F
100
AcDbEntity
  8
0
  6
Continuous
 62
     7
370
    25
100
AcDbCircle
 10
0.3205
 20
-7.471
 30
0.0
 40
0.1500000000000004
100
AcDbArc
 50
270.0
 51
0.0
  0
LINE
  5
198
330
1F
100
AcDbEntity
  8
0
  6
Continuous
 62
     7
370
    25
100
AcDbLine
 10
-0.3205
 20
-7.621
 30
0.0
 11
0.3205
 21
-7.621
 31
0.0
  0
ARC
  5
199
330
1F
100
AcDbEntity
  8
0
  6
Continuous
 62
     7
370
    25
100
AcDbCircle
 10
0.7665
 20
-6.483
 30
0.0
 40
0.0569999999999999
100
AcDbArc
 50
360.0
 51
180.0
  0
LINE
  5
19A
330
1F
100
AcDbEntity
  8
0
  6
Continuous
 62
     7
370
    25
100
AcDbLine
 10
0.8235
 20
-7.424
 30
0.0
 11
0.8235
 21
-6.483
 31
0.0
  0
ARC
  5
19B
330
1F
100
AcDbEntity
  8
0
  6
Continuous
 62
     7
370
    25
100
AcDbCircle
 10
0.7665
 20
-7.424
 30
0.0
 40
0.0569999999999999
100
AcDbArc
 50
180.0
 51
0.0
  0
LINE
  5
19C
330
1F
100
AcDbEntity
  8
0
  6
Continuous
 62
     7
370
    25
100
AcDbLine
 10
0.7095
 20
-6.483
 30
0.0
 11
0.7095
 21
-7.424
 31
0.0
  0
LINE
  5
19D
330
1F
100
AcDbEntity
  8
0
  6
Continuous
 62
     7
370
    25
100
AcDbLine
 10
-0.8235
 20
-7.424
 30
0.0
 11
-0.8235
 21
-6.483
 31
0.0
  0
ARC
  5
19E
330
1F
100
AcDbEntity
  8
0
  6
Continuous
 62
     7
370
    25
100
AcDbCircle
 10
-0.7665
 20
-6.483
 30
0.0
 40
0.0569999999999999
100
AcDbArc
 50
360.0
 51
180.0
  0
LINE
  5
19F
330
1F
100
AcDbEntity
  8
0
  6
Continuous
 62
     7
370
    25
100
AcDbLine
 10
-0.7095
 20
-6.483
 30
0.0
 11
-0.7095
 21
-7.424
 31
0.0
  0
ARC
  5
1A0
330
1F
100
AcDbEntity
  8
0
  6
Continuous
 62
     7
370
    25
100
AcDbCircle
 10
-0.7665
 20
-7.424
 30
0.0
 40
0.0569999999999999
100
AcDbArc
 50
180.0
 51
0.0
  0
CIRCLE
  5
1A1
330
1F
100
AcDbEntity
  8
0
  6
Continuous
 62
     7
370
    25
100
AcDbCircle
 10
-0.77
 20
-7.5915
 30
0.0
 40
0.0324999999999998
  0
CIRCLE
  5
1A2
330
1F
100
AcDbEntity
  8
0
  6
Continuous
 62
     7
370
    25
100
AcDbCircle
 10
-2.071
 20
-1.2924035101
 30
0.0
 40
0.0575000000000001
  0
LINE
  5
1A3
330
1F
100
AcDbEntity
  8
0
  6
Continuous
 62
     7
370
    25
100
AcDbLine
 10
-2.8285
 20
-0.6241205736
 30
0.0
 11
-2.2785
 21
-0.9416632216
 31
0.0
  0
ARC
  5
1A4
330
1F
100
AcDbEntity
  8
0
  6
Continuous
 62
     7
370
    25
100
AcDbCircle
 10
-2.3035
 20
-0.9849644918
 30
0.0
 40
0.0499999999999998
100
AcDbArc
 50
0.0
 51
60.0
  0
LINE
  5
1A5
330
1F
100
AcDbEntity
  8
0
  6
Continuous
 62
     7
370
    25
100
AcDbLine
 10
-2.2535
 20
-0.9849644918
 30
0.0
 11
-2.2535
 21
-1.3313746533
 31
0.0
  0
ARC
  5
1A6
330
1F
100
AcDbEntity
  8
0
  6
Continuous
 62
     7
370
    25
100
AcDbCircle
 10
-2.3035
 20
-1.3313746533
 30
0.0
 40
0.0499999999999999
100
AcDbArc
 50
240.0
 51
0.0
  0
LINE
  5
1A7
330
1F
100
AcDbEntity
  8
0
  6
Continuous
 62
     7
370
    25
100
AcDbLine
 10
-2.3285
 20
-1.3746759235
 30
0.0
 11
-2.8785
 21
-1.0571332755
 31
0.0
  0
ARC
  5
1A8
330
1F
100
AcDbEntity
  8
0
  6
Continuous
 62
     7
370
    25
100
AcDbCircle
 10
-2.8535
 20
-1.0138320053
 30
0.0
 40
0.0500000000000001
100
AcDbArc
 50
180.0
 51
240.0
  0
LINE
  5
1A9
330
1F
100
AcDbEntity
  8
0
  6
Continuous
 62
     7
370
    25
100
AcDbLine
 10
-2.9035
 20
-1.0138320053
 30
0.0
 11
-2.9035
 21
-0.6674218437
 31
0.0
  0
ARC
  5
1AA
330
1F
100
AcDbEntity
  8
0
  6
Continuous
 62
     7
370
    25
100
AcDbCircle
 10
-2.8535
 20
-0.6674218437
 30
0.0
 40
0.05
100
AcDbArc
 50
60.0
 51
180.0
  0
LINE
  5
1AB
330
1F
100
AcDbEntity
  8
0
  6
Continuous
 62
     7
370
    25
100
AcDbLine
 10
-1.3135
 20
-1.9606864467
 30
0.0
 11
-1.8635
 21
-1.6431437987
 31
0.0
  0
ARC
  5
1AC
330
1F
100
AcDbEntity
  8
0
  6
Continuous
 62
     7
370
    25
100
AcDbCircle
 10
-1.8385
 20
-1.5998425285
 30
0.0
 40
0.0500000000000001
100
AcDbArc
 50
180.0
 51
240.0
  0
LINE
  5
1AD
330
1F
100
AcDbEntity
  8
0
  6
Continuous
 62
     7
370
    25
100
AcDbLine
 10
-1.8885
 20
-1.5998425285
 30
0.0
 11
-1.8885
 21
-1.253432367
 31
0.0
  0
ARC
  5
1AE
330
1F
100
AcDbEntity
  8
0
  6
Continuous
 62
     7
370
    25
100
AcDbCircle
 10
-1.8385
 20
-1.253432367
 30
0.0
 40
0.0500000000000001
100
AcDbArc
 50
60.0
 51
180.0
  0
LINE
  5
1AF
330
1F
100
AcDbEntity
  8
0
  6
Continuous
 62
     7
370
    25
100
AcDbLine
 10
-1.8135
 20
-1.2101310968
 30
0.0
 11
-1.2635
 21
-1.5276737448
 31
0.0
  0
ARC
  5
1B0
330
1F
100
AcDbEntity
  8
0
  6
Continuous
 62
     7
370
    25
100
AcDbCircle
 10
-1.2885
 20
-1.570975015
 30
0.0
 40
0.0500000000000001
100
AcDbArc
 50
0.0
 51
60.0
  0
LINE
  5
1B1
330
1F
100
AcDbEntity
  8
0
  6
Continuous
 62
     7
370
    25
100
AcDbLine
 10
-1.2385
 20
-1.570975015
 30
0.0
 11
-1.2385
 21
-1.9173851765
 31
0.0
  0
ARC
  5
1B2
330
1F
100
AcDbEntity
  8
0
  6
Continuous
 62
     7
370
    25
100
AcDbCircle
 10
-1.2885
 20
-1.9173851765
 30
0.0
 40
0.05
100
AcDbArc
 50
240.0
 51
0.0
  0
ARC
  5
1B3
330
1F
100
AcDbEntity
  8
0
  6
Continuous
 62
     7
370
    25
100
AcDbCircle
 10
-3.8310036805
 20
-0.5874052656
 30
0.0
 40
0.0600000000000008
100
AcDbArc
 50
107.1563569564
 51
287.1563569564
  0
LINE
  5
1B4
330
1F
100
AcDbEntity
  8
0
  6
Continuous
 62
     7
370
    25
100
AcDbLine
 10
-3.8487024993
 20
-0.5300750658
 30
0.0
 11
-3.7961498162
 21
-0.5138511485
 31
0.0
  0
ARC
  5
1B5
330
1F
100
AcDbEntity
  8
0
  6
Continuous
 62
     7
370
    25
100
AcDbCircle
 10
-3.7784509973
 20
-0.5711813483
 30
0.0
 40
0.0600000000000015
100
AcDbArc
 50
287.1563569564
 51
107.1563569564
  0
LINE
  5
1B6
330
1F
100
AcDbEntity
  8
0
  6
Continuous
 62
     7
370
    25
100
AcDbLine
 10
-3.7607521784
 20
-0.6285115481
 30
0.0
 11
-3.8133048616
 21
-0.6447354654
 31
0.0
  0
ARC
  5
1B7
330
1F
100
AcDbEntity
  8
0
  6
Continuous
 62
     7
370
    25
100
AcDbCircle
 10
-3.371450941
 20
-0.8301474738
 30
0.0
 40
0.0600000000000005
100
AcDbArc
 50
197.1563569564
 51
17.1563569564
  0
LINE
  5
1B8
330
1F
100
AcDbEntity
  8
0
  6
Continuous
 62
     7
370
    25
100
AcDbLine
 10
-3.4287811408
 20
-0.8478462927
 30
0.0
 11
-3.4450050581
 21
-0.7952936096
 31
0.0
  0
ARC
  5
1B9
330
1F
100
AcDbEntity
  8
0
  6
Continuous
 62
     7
370
    25
100
AcDbCircle
 10
-3.3876748583
 20
-0.7775947907
 30
0.0
 40
0.0600000000000009
100
AcDbArc
 50
17.1563569564
 51
197.1563569564
  0
LINE
  5
1BA
330
1F
100
AcDbEntity
  8
0
  6
Continuous
 62
     7
370
    25
100
AcDbLine
 10
-3.3303446585
 20
-0.7598959718
 30
0.0
 11
-3.3141207412
 21
-0.812448655
 31
0.0
  0
ARC
  5
1BB
330
1F
100
AcDbEntity
  8
0
  6
Continuous
 62
     7
370
    25
100
AcDbCircle
 10
-3.1287087328
 20
-0.3705947344
 30
0.0
 40
0.0600000000000007
100
AcDbArc
 50
287.1563569564
 51
107.1563569564
  0
LINE
  5
1BC
330
1F
100
AcDbEntity
  8
0
  6
Continuous
 62
     7
370
    25
100
AcDbLine
 10
-3.1110099139
 20
-0.4279249342
 30
0.0
 11
-3.1635625971
 21
-0.4441488515
 31
0.0
  0
ARC
  5
1BD
330
1F
100
AcDbEntity
  8
0
  6
Continuous
 62
     7
370
    25
100
AcDbCircle
 10
-3.1812614159
 20
-0.3868186517
 30
0.0
 40
0.060000000000001
100
AcDbArc
 50
107.1563569564
 51
287.1563569564
  0
LINE
  5
1BE
330
1F
100
AcDbEntity
  8
0
  6
Continuous
 62
     7
370
    25
100
AcDbLine
 10
-3.1989602348
 20
-0.3294884519
 30
0.0
 11
-3.1464075517
 21
-0.3132645346
 31
0.0
  0
ARC
  5
1BF
330
1F
100
AcDbEntity
  8
0
  6
Continuous
 62
     7
370
    25
100
AcDbCircle
 10
-3.5882614723
 20
-0.1278525262
 30
0.0
 40
0.0600000000000008
100
AcDbArc
 50
17.1563569564
 51
197.1563569564
  0
LINE
  5
1C0
330
1F
100
AcDbEntity
  8
0
  6
Continuous
 62
     7
370
    25
100
AcDbLine
 10
-3.5309312725
 20
-0.1101537073
 30
0.0
 11
-3.5147073551
 21
-0.1627063904
 31
0.0
  0
ARC
  5
1C1
330
1F
100
AcDbEntity
  8
0
  6
Continuous
 62
     7
370
    25
100
AcDbCircle
 10
-3.572037555
 20
-0.1804052093
 30
0.0
 40
0.0600000000000009
100
AcDbArc
 50
197.1563569564
 51
17.1563569564
  0
LINE
  5
1C2
330
1F
100
AcDbEntity
  8
0
  6
Continuous
 62
     7
370
    25
100
AcDbLine
 10
-3.6293677548
 20
-0.1981040282
 30
0.0
 11
-3.6455916721
 21
-0.145551345
 31
0.0
  0
ARC
  5
1C3
330
1F
100
AcDbEntity
  8
0
  6
Continuous
 62
     7
370
    25
100
AcDbCircle
 10
-3.5961062066
 20
-0.6803509064
 30
0.0
 40
0.0425000000000015
100
AcDbArc
 50
150.0
 51
330.0
  0
LINE
  5
1C4
330
1F
100
AcDbEntity
  8
0
  6
Continuous
 62
     7
370
    25
100
AcDbLine
 10
-3.595084222
 20
-0.5935807771
 30
0.0
 11
-3.6329122863
 21
-0.6591009064
 31
0.0
  0
ARC
  5
1C5
330
1F
100
AcDbEntity
  8
0
  6
Continuous
 62
     7
370
    25
100
AcDbCircle
 10
-3.4798562066
 20
-0.479
 30
0.0
 40
0.1624999999999906
100
AcDbArc
 50
165.1613686066
 51
224.8386313934
  0
LINE
  5
1C6
330
1F
100
AcDbEntity
  8
0
  6
Continuous
 62
     7
370
    25
100
AcDbLine
 10
-3.6369369837
 20
-0.437384144
 30
0.0
 11
-3.7717391453
 21
-0.3595560797
 31
0.0
  0
ARC
  5
1C7
330
1F
100
AcDbEntity
  8
0
  6
Continuous
 62
     7
370
    25
100
AcDbCircle
 10
-3.7504891453
 20
-0.32275
 30
0.0
 40
0.0424999999999999
100
AcDbArc
 50
60.0
 51
240.0
  0
LINE
  5
1C8
330
1F
100
AcDbEntity
  8
0
  6
Continuous
 62
     7
370
    25
100
AcDbLine
 10
-3.5944369837
 20
-0.3637719846
 30
0.0
 11
-3.7292391453
 21
-0.2859439203
 31
0.0
  0
ARC
  5
1C9
330
1F
100
AcDbEntity
  8
0
  6
Continuous
 62
     7
370
    25
100
AcDbCircle
 10
-3.4798562066
 20
-0.479
 30
0.0
 40
0.1624999999999907
100
AcDbArc
 50
75.1613686066
 51
134.8386313934
  0
LINE
  5
1CA
330
1F
100
AcDbEntity
  8
0
  6
Continuous
 62
     7
370
    25
100
AcDbLine
 10
-3.4004122863
 20
-0.2563990936
 30
0.0
 11
-3.4382403506
 21
-0.3219192229
 31
0.0
  0
ARC
  5
1CB
330
1F
100
AcDbEntity
  8
0
  6
Continuous
 62
     7
370
    25
100
AcDbCircle
 10
-3.3636062066
 20
-0.2776490936
 30
0.0
 40
0.0425000000000014
100
AcDbArc
 50
330.0
 51
150.0
  0
LINE
  5
1CC
330
1F
100
AcDbEntity
  8
0
  6
Continuous
 62
     7
370
    25
100
AcDbLine
 10
-3.326800127
 20
-0.2988990936
 30
0.0
 11
-3.3646281913
 21
-0.3644192229
 31
0.0
  0
ARC
  5
1CD
330
1F
100
AcDbEntity
  8
0
  6
Continuous
 62
     7
370
    25
100
AcDbCircle
 10
-3.4798562066
 20
-0.479
 30
0.0
 40
0.1624999999999902
100
AcDbArc
 50
345.1613686066
 51
44.8386313934
  0
LINE
  5
1CE
330
1F
100
AcDbEntity
  8
0
  6
Continuous
 62
     7
370
    25
100
AcDbLine
 10
-3.1879732679
 20
-0.5984439203
 30
0.0
 11
-3.3227754296
 21
-0.520615856
 31
0.0
  0
ARC
  5
1CF
330
1F
100
AcDbEntity
  8
0
  6
Continuous
 62
     7
370
    25
100
AcDbCircle
 10
-3.2092232679
 20
-0.63525
 30
0.0
 40
0.0425000000000004
100
AcDbArc
 50
240.0
 51
60.0
  0
LINE
  5
1D0
330
1F
100
AcDbEntity
  8
0
  6
Continuous
 62
     7
370
    25
100
AcDbLine
 10
-3.2304732679
 20
-0.6720560797
 30
0.0
 11
-3.3652754296
 21
-0.5942280154
 31
0.0
  0
ARC
  5
1D1
330
1F
100
AcDbEntity
  8
0
  6
Continuous
 62
     7
370
    25
100
AcDbCircle
 10
-3.4798562066
 20
-0.479
 30
0.0
 40
0.1624999999999906
100
AcDbArc
 50
255.1613686066
 51
314.8386313934
  0
LINE
  5
1D2
330
1F
100
AcDbEntity
  8
0
  6
Continuous
 62
     7
370
    25
100
AcDbLine
 10
-3.5214720627
 20
-0.6360807771
 30
0.0
 11
-3.559300127
 21
-0.7016009064
 31
0.0
  0
CIRCLE
  5
1D3
330
1F
100
AcDbEntity
  8
0
  6
Continuous
 62
     7
370
    25
100
AcDbCircle
 10
-2.071
 20
-6.6253089031
 30
0.0
 40
0.057500000000001
  0
LINE
  5
1D4
330
1F
100
AcDbEntity
  8
0
  6
Continuous
 62
     7
370
    25
100
AcDbLine
 10
-2.8285
 20
-7.2935918397
 30
0.0
 11
-2.2785
 21
-6.9760491916
 31
0.0
  0
ARC
  5
1D5
330
1F
100
AcDbEntity
  8
0
  6
Continuous
 62
     7
370
    25
100
AcDbCircle
 10
-2.8535
 20
-7.2502905695
 30
0.0
 40
0.0499999999999998
100
AcDbArc
 50
180.0
 51
300.0
  0
LINE
  5
1D6
330
1F
100
AcDbEntity
  8
0
  6
Continuous
 62
     7
370
    25
100
AcDbLine
 10
-2.9035
 20
-6.903880408
 30
0.0
 11
-2.9035
 21
-7.2502905695
 31
0.0
  0
ARC
  5
1D7
330
1F
100
AcDbEntity
  8
0
  6
Continuous
 62
     7
370
    25
100
AcDbCircle
 10
-2.8535
 20
-6.903880408
 30
0.0
 40
0.0500000000000013
100
AcDbArc
 50
120.0
 51
180.0
  0
LINE
  5
1D8
330
1F
100
AcDbEntity
  8
0
  6
Continuous
 62
     7
370
    25
100
AcDbLine
 10
-2.3285
 20
-6.5430364897
 30
0.0
 11
-2.8785
 21
-6.8605791378
 31
0.0
  0
ARC
  5
1D9
330
1F
100
AcDbEntity
  8
0
  6
Continuous
 62
     7
370
    25
100
AcDbCircle
 10
-2.3035
 20
-6.5863377599
 30
0.0
 40
0.0499999999999998
100
AcDbArc
 50
0.0
 51
120.0
  0
LINE
  5
1DA
330
1F
100
AcDbEntity
  8
0
  6
Continuous
 62
     7
370
    25
100
AcDbLine
 10
-2.2535
 20
-6.9327479215
 30
0.0
 11
-2.2535
 21
-6.5863377599
 31
0.0
  0
ARC
  5
1DB
330
1F
100
AcDbEntity
  8
0
  6
Continuous
 62
     7
370
    25
100
AcDbCircle
 10
-2.3035
 20
-6.9327479215
 30
0.0
 40
0.0499999999999998
100
AcDbArc
 50
300.0
 51
0.0
  0
LINE
  5
1DC
330
1F
100
AcDbEntity
  8
0
  6
Continuous
 62
     7
370
    25
100
AcDbLine
 10
-1.3135
 20
-5.9570259665
 30
0.0
 11
-1.8635
 21
-6.2745686146
 31
0.0
  0
ARC
  5
1DD
330
1F
100
AcDbEntity
  8
0
  6
Continuous
 62
     7
370
    25
100
AcDbCircle
 10
-1.2885
 20
-6.0003272367
 30
0.0
 40
0.05
100
AcDbArc
 50
0.0
 51
120.0
  0
LINE
  5
1DE
330
1F
100
AcDbEntity
  8
0
  6
Continuous
 62
     7
370
    25
100
AcDbLine
 10
-1.2385
 20
-6.3467373982
 30
0.0
 11
-1.2385
 21
-6.0003272367
 31
0.0
  0
ARC
  5
1DF
330
1F
100
AcDbEntity
  8
0
  6
Continuous
 62
     7
370
    25
100
AcDbCircle
 10
-1.2885
 20
-6.3467373982
 30
0.0
 40
0.05
100
AcDbArc
 50
300.0
 51
0.0
  0
LINE
  5
1E0
330
1F
100
AcDbEntity
  8
0
  6
Continuous
 62
     7
370
    25
100
AcDbLine
 10
-1.8135
 20
-6.7075813165
 30
0.0
 11
-1.2635
 21
-6.3900386684
 31
0.0
  0
ARC
  5
1E1
330
1F
100
AcDbEntity
  8
0
  6
Continuous
 62
     7
370
    25
100
AcDbCircle
 10
-1.8385
 20
-6.6642800463
 30
0.0
 40
0.05
100
AcDbArc
 50
180.0
 51
300.0
  0
LINE
  5
1E2
330
1F
100
AcDbEntity
  8
0
  6
Continuous
 62
     7
370
    25
100
AcDbLine
 10
-1.8885
 20
-6.3178698848
 30
0.0
 11
-1.8885
 21
-6.6642800463
 31
0.0
  0
ARC
  5
1E3
330
1F
100
AcDbEntity
  8
0
  6
Continuous
 62
     7
370
    25
100
AcDbCircle
 10
-1.8385
 20
-6.3178698848
 30
0.0
 40
0.0500000000000003
100
AcDbArc
 50
120.0
 51
180.0
  0
ARC
  5
1E4
330
1F
100
AcDbEntity
  8
0
  6
Continuous
 62
     7
370
    25
100
AcDbCircle
 10
-3.8310036805
 20
-7.3303071476
 30
0.0
 40
0.0600000000000011
100
AcDbArc
 50
72.8436430436
 51
252.8436430436
  0
LINE
  5
1E5
330
1F
100
AcDbEntity
  8
0
  6
Continuous
 62
     7
370
    25
100
AcDbLine
 10
-3.7607521784
 20
-7.2892008651
 30
0.0
 11
-3.8133048616
 21
-7.2729769478
 31
0.0
  0
ARC
  5
1E6
330
1F
100
AcDbEntity
  8
0
  6
Continuous
 62
     7
370
    25
100
AcDbCircle
 10
-3.7784509973
 20
-7.3465310649
 30
0.0
 40
0.0600000000000021
100
AcDbArc
 50
252.8436430436
 51
72.8436430436
  0
LINE
  5
1E7
330
1F
100
AcDbEntity
  8
0
  6
Continuous
 62
     7
370
    25
100
AcDbLine
 10
-3.8487024993
 20
-7.3876373474
 30
0.0
 11
-3.7961498162
 21
-7.4038612647
 31
0.0
  0
ARC
  5
1E8
330
1F
100
AcDbEntity
  8
0
  6
Continuous
 62
     7
370
    25
100
AcDbCircle
 10
-3.371450941
 20
-7.0875649394
 30
0.0
 40
0.0600000000000004
100
AcDbArc
 50
342.8436430436
 51
162.8436430436
  0
LINE
  5
1E9
330
1F
100
AcDbEntity
  8
0
  6
Continuous
 62
     7
370
    25
100
AcDbLine
 10
-3.3303446585
 20
-7.1578164415
 30
0.0
 11
-3.3141207412
 21
-7.1052637583
 31
0.0
  0
ARC
  5
1EA
330
1F
100
AcDbEntity
  8
0
  6
Continuous
 62
     7
370
    25
100
AcDbCircle
 10
-3.3876748583
 20
-7.1401176226
 30
0.0
 40
0.0600000000000008
100
AcDbArc
 50
162.8436430436
 51
342.8436430436
  0
LINE
  5
1EB
330
1F
100
AcDbEntity
  8
0
  6
Continuous
 62
     7
370
    25
100
AcDbLine
 10
-3.4287811408
 20
-7.0698661205
 30
0.0
 11
-3.4450050581
 21
-7.1224188037
 31
0.0
  0
ARC
  5
1EC
330
1F
100
AcDbEntity
  8
0
  6
Continuous
 62
     7
370
    25
100
AcDbCircle
 10
-3.1287087328
 20
-7.5471176789
 30
0.0
 40
0.0600000000000005
100
AcDbArc
 50
252.8436430436
 51
72.8436430436
  0
LINE
  5
1ED
330
1F
100
AcDbEntity
  8
0
  6
Continuous
 62
     7
370
    25
100
AcDbLine
 10
-3.1989602348
 20
-7.5882239614
 30
0.0
 11
-3.1464075517
 21
-7.6044478787
 31
0.0
  0
ARC
  5
1EE
330
1F
100
AcDbEntity
  8
0
  6
Continuous
 62
     7
370
    25
100
AcDbCircle
 10
-3.1812614159
 20
-7.5308937616
 30
0.0
 40
0.0600000000000022
100
AcDbArc
 50
72.8436430436
 51
252.8436430436
  0
LINE
  5
1EF
330
1F
100
AcDbEntity
  8
0
  6
Continuous
 62
     7
370
    25
100
AcDbLine
 10
-3.1110099139
 20
-7.4897874791
 30
0.0
 11
-3.1635625971
 21
-7.4735635618
 31
0.0
  0
ARC
  5
1F0
330
1F
100
AcDbEntity
  8
0
  6
Continuous
 62
     7
370
    25
100
AcDbCircle
 10
-3.5882614723
 20
-7.7898598871
 30
0.0
 40
0.0600000000000006
100
AcDbArc
 50
162.8436430436
 51
342.8436430436
  0
LINE
  5
1F1
330
1F
100
AcDbEntity
  8
0
  6
Continuous
 62
     7
370
    25
100
AcDbLine
 10
-3.6293677548
 20
-7.7196083851
 30
0.0
 11
-3.6455916721
 21
-7.7721610682
 31
0.0
  0
ARC
  5
1F2
330
1F
100
AcDbEntity
  8
0
  6
Continuous
 62
     7
370
    25
100
AcDbCircle
 10
-3.572037555
 20
-7.7373072039
 30
0.0
 40
0.0600000000000013
100
AcDbArc
 50
342.8436430436
 51
162.8436430436
  0
LINE
  5
1F3
330
1F
100
AcDbEntity
  8
0
  6
Continuous
 62
     7
370
    25
100
AcDbLine
 10
-3.5309312725
 20
-7.807558706
 30
0.0
 11
-3.5147073551
 21
-7.7550060228
 31
0.0
  0
ARC
  5
1F4
330
1F
100
AcDbEntity
  8
0
  6
Continuous
 62
     7
370
    25
100
AcDbCircle
 10
-3.5961062066
 20
-7.2373615069
 30
0.0
 40
0.0425000000000013
100
AcDbArc
 50
30.0
 51
210.0
  0
LINE
  5
1F5
330
1F
100
AcDbEntity
  8
0
  6
Continuous
 62
     7
370
    25
100
AcDbLine
 10
-3.5214720627
 20
-7.2816316362
 30
0.0
 11
-3.559300127
 21
-7.2161115069
 31
0.0
  0
ARC
  5
1F6
330
1F
100
AcDbEntity
  8
0
  6
Continuous
 62
     7
370
    25
100
AcDbCircle
 10
-3.4798562066
 20
-7.4387124133
 30
0.0
 40
0.1624999999999906
100
AcDbArc
 50
45.1613686066
 51
104.8386313934
  0
LINE
  5
1F7
330
1F
100
AcDbEntity
  8
0
  6
Continuous
 62
     7
370
    25
100
AcDbLine
 10
-3.2304732679
 20
-7.2456563336
 30
0.0
 11
-3.3652754296
 21
-7.3234843979
 31
0.0
  0
ARC
  5
1F8
330
1F
100
AcDbEntity
  8
0
  6
Continuous
 62
     7
370
    25
100
AcDbCircle
 10
-3.2092232679
 20
-7.2824624133
 30
0.0
 40
0.0425000000000003
100
AcDbArc
 50
300.0
 51
120.0
  0
LINE
  5
1F9
330
1F
100
AcDbEntity
  8
0
  6
Continuous
 62
     7
370
    25
100
AcDbLine
 10
-3.1879732679
 20
-7.3192684929
 30
0.0
 11
-3.3227754296
 21
-7.3970965572
 31
0.0
  0
ARC
  5
1FA
330
1F
100
AcDbEntity
  8
0
  6
Continuous
 62
     7
370
    25
100
AcDbCircle
 10
-3.4798562066
 20
-7.4387124133
 30
0.0
 40
0.1624999999999906
100
AcDbArc
 50
315.1613686066
 51
14.8386313934
  0
LINE
  5
1FB
330
1F
100
AcDbEntity
  8
0
  6
Continuous
 62
     7
370
    25
100
AcDbLine
 10
-3.326800127
 20
-7.6188133196
 30
0.0
 11
-3.3646281913
 21
-7.5532931903
 31
0.0
  0
ARC
  5
1FC
330
1F
100
AcDbEntity
  8
0
  6
Continuous
 62
     7
370
    25
100
AcDbCircle
 10
-3.3636062066
 20
-7.6400633196
 30
0.0
 40
0.0425000000000013
100
AcDbArc
 50
210.0
 51
30.0
  0
LINE
  5
1FD
330
1F
100
AcDbEntity
  8
0
  6
Continuous
 62
     7
370
    25
100
AcDbLine
 10
-3.4004122863
 20
-7.6613133196
 30
0.0
 11
-3.4382403506
 21
-7.5957931903
 31
0.0
  0
ARC
  5
1FE
330
1F
100
AcDbEntity
  8
0
  6
Continuous
 62
     7
370
    25
100
AcDbCircle
 10
-3.4798562066
 20
-7.4387124133
 30
0.0
 40
0.1624999999999912
100
AcDbArc
 50
225.1613686066
 51
284.8386313934
  0
LINE
  5
1FF
330
1F
100
AcDbEntity
  8
0
  6
Continuous
 62
     7
370
    25
100
AcDbLine
 10
-3.5944369837
 20
-7.5539404286
 30
0.0
 11
-3.7292391453
 21
-7.6317684929
 31
0.0
  0
ARC
  5
200
330
1F
100
AcDbEntity
  8
0
  6
Continuous
 62
     7
370
    25
100
AcDbCircle
 10
-3.7504891453
 20
-7.5949624133
 30
0.0
 40
0.0425000000000003
100
AcDbArc
 50
120.0
 51
300.0
  0
LINE
  5
201
330
1F
100
AcDbEntity
  8
0
  6
Continuous
 62
     7
370
    25
100
AcDbLine
 10
-3.6369369837
 20
-7.4803282693
 30
0.0
 11
-3.7717391453
 21
-7.5581563336
 31
0.0
  0
ARC
  5
202
330
1F
100
AcDbEntity
  8
0
  6
Continuous
 62
     7
370
    25
100
AcDbCircle
 10
-3.4798562066
 20
-7.4387124133
 30
0.0
 40
0.1624999999999906
100
AcDbArc
 50
135.1613686066
 51
194.8386313934
  0
LINE
  5
203
330
1F
100
AcDbEntity
  8
0
  6
Continuous
 62
     7
370
    25
100
AcDbLine
 10
-3.595084222
 20
-7.3241316362
 30
0.0
 11
-3.6329122863
 21
-7.2586115069
 31
0.0
  0
CIRCLE
  5
204
330
1F
100
AcDbEntity
  8
0
  6
Continuous
 62
     7
370
    25
100
AcDbCircle
 10
2.071
 20
-6.6253089031
 30
0.0
 40
0.057500000000001
  0
LINE
  5
205
330
1F
100
AcDbEntity
  8
0
  6
Continuous
 62
     7
370
    25
100
AcDbLine
 10
2.8285
 20
-7.2935918397
 30
0.0
 11
2.2785
 21
-6.9760491916
 31
0.0
  0
ARC
  5
206
330
1F
100
AcDbEntity
  8
0
  6
Continuous
 62
     7
370
    25
100
AcDbCircle
 10
2.3035
 20
-6.9327479215
 30
0.0
 40
0.0499999999999998
100
AcDbArc
 50
180.0
 51
240.0
  0
LINE
  5
207
330
1F
100
AcDbEntity
  8
0
  6
Continuous
 62
     7
370
    25
100
AcDbLine
 10
2.2535
 20
-6.9327479215
 30
0.0
 11
2.2535
 21
-6.5863377599
 31
0.0
  0
ARC
  5
208
330
1F
100
AcDbEntity
  8
0
  6
Continuous
 62
     7
370
    25
100
AcDbCircle
 10
2.3035
 20
-6.5863377599
 30
0.0
 40
0.0499999999999998
100
AcDbArc
 50
60.0
 51
180.0
  0
LINE
  5
209
330
1F
100
AcDbEntity
  8
0
  6
Continuous
 62
     7
370
    25
100
AcDbLine
 10
2.3285
 20
-6.5430364897
 30
0.0
 11
2.8785
 21
-6.8605791378
 31
0.0
  0
ARC
  5
20A
330
1F
100
AcDbEntity
  8
0
  6
Continuous
 62
     7
370
    25
100
AcDbCircle
 10
2.8535
 20
-6.903880408
 30
0.0
 40
0.0500000000000013
100
AcDbArc
 50
0.0
 51
60.0
  0
LINE
  5
20B
330
1F
100
AcDbEntity
  8
0
  6
Continuous
 62
     7
370
    25
100
AcDbLine
 10
2.9035
 20
-6.903880408
 30
0.0
 11
2.9035
 21
-7.2502905695
 31
0.0
  0
ARC
  5
20C
330
1F
100
AcDbEntity
  8
0
  6
Continuous
 62
     7
370
    25
100
AcDbCircle
 10
2.8535
 20
-7.2502905695
 30
0.0
 40
0.0499999999999998
100
AcDbArc
 50
240.0
 51
0.0
  0
LINE
  5
20D
330
1F
100
AcDbEntity
  8
0
  6
Continuous
 62
     7
370
    25
100
AcDbLine
 10
1.3135
 20
-5.9570259665
 30
0.0
 11
1.8635
 21
-6.2745686146
 31
0.0
  0
ARC
  5
20E
330
1F
100
AcDbEntity
  8
0
  6
Continuous
 62
     7
370
    25
100
AcDbCircle
 10
1.8385
 20
-6.3178698848
 30
0.0
 40
0.0500000000000003
100
AcDbArc
 50
0.0
 51
60.0
  0
LINE
  5
20F
330
1F
100
AcDbEntity
  8
0
  6
Continuous
 62
     7
370
    25
100
AcDbLine
 10
1.8885
 20
-6.3178698848
 30
0.0
 11
1.8885
 21
-6.6642800463
 31
0.0
  0
ARC
  5
210
330
1F
100
AcDbEntity
  8
0
  6
Continuous
 62
     7
370
    25
100
AcDbCircle
 10
1.8385
 20
-6.6642800463
 30
0.0
 40
0.05
100
AcDbArc
 50
240.0
 51
0.0
  0
LINE
  5
211
330
1F
100
AcDbEntity
  8
0
  6
Continuous
 62
     7
370
    25
100
AcDbLine
 10
1.8135
 20
-6.7075813165
 30
0.0
 11
1.2635
 21
-6.3900386684
 31
0.0
  0
ARC
  5
212
330
1F
100
AcDbEntity
  8
0
  6
Continuous
 62
     7
370
    25
100
AcDbCircle
 10
1.2885
 20
-6.3467373982
 30
0.0
 40
0.05
100
AcDbArc
 50
180.0
 51
240.0
  0
LINE
  5
213
330
1F
100
AcDbEntity
  8
0
  6
Continuous
 62
     7
370
    25
100
AcDbLine
 10
1.2385
 20
-6.3467373982
 30
0.0
 11
1.2385
 21
-6.0003272367
 31
0.0
  0
ARC
  5
214
330
1F
100
AcDbEntity
  8
0
  6
Continuous
 62
     7
370
    25
100
AcDbCircle
 10
1.2885
 20
-6.0003272367
 30
0.0
 40
0.05
100
AcDbArc
 50
60.0
 51
180.0
  0
ARC
  5
215
330
1F
100
AcDbEntity
  8
0
  6
Continuous
 62
     7
370
    25
100
AcDbCircle
 10
3.8310036805
 20
-7.3303071476
 30
0.0
 40
0.0600000000000011
100
AcDbArc
 50
287.1563569564
 51
107.1563569564
  0
LINE
  5
216
330
1F
100
AcDbEntity
  8
0
  6
Continuous
 62
     7
370
    25
100
AcDbLine
 10
3.8487024993
 20
-7.3876373474
 30
0.0
 11
3.7961498162
 21
-7.4038612647
 31
0.0
  0
ARC
  5
217
330
1F
100
AcDbEntity
  8
0
  6
Continuous
 62
     7
370
    25
100
AcDbCircle
 10
3.7784509973
 20
-7.3465310649
 30
0.0
 40
0.0600000000000021
100
AcDbArc
 50
107.1563569564
 51
287.1563569564
  0
LINE
  5
218
330
1F
100
AcDbEntity
  8
0
  6
Continuous
 62
     7
370
    25
100
AcDbLine
 10
3.7607521784
 20
-7.2892008651
 30
0.0
 11
3.8133048616
 21
-7.2729769478
 31
0.0
  0
ARC
  5
219
330
1F
100
AcDbEntity
  8
0
  6
Continuous
 62
     7
370
    25
100
AcDbCircle
 10
3.371450941
 20
-7.0875649394
 30
0.0
 40
0.0600000000000004
100
AcDbArc
 50
17.1563569564
 51
197.1563569564
  0
LINE
  5
21A
330
1F
100
AcDbEntity
  8
0
  6
Continuous
 62
     7
370
    25
100
AcDbLine
 10
3.4287811408
 20
-7.0698661205
 30
0.0
 11
3.4450050581
 21
-7.1224188037
 31
0.0
  0
ARC
  5
21B
330
1F
100
AcDbEntity
  8
0
  6
Continuous
 62
     7
370
    25
100
AcDbCircle
 10
3.3876748583
 20
-7.1401176226
 30
0.0
 40
0.0600000000000008
100
AcDbArc
 50
197.1563569564
 51
17.1563569564
  0
LINE
  5
21C
330
1F
100
AcDbEntity
  8
0
  6
Continuous
 62
     7
370
    25
100
AcDbLine
 10
3.3303446585
 20
-7.1578164415
 30
0.0
 11
3.3141207412
 21
-7.1052637583
 31
0.0
  0
ARC
  5
21D
330
1F
100
AcDbEntity
  8
0
  6
Continuous
 62
     7
370
    25
100
AcDbCircle
 10
3.1287087328
 20
-7.5471176789
 30
0.0
 40
0.0600000000000005
100
AcDbArc
 50
107.1563569564
 51
287.1563569564
  0
LINE
  5
21E
330
1F
100
AcDbEntity
  8
0
  6
Continuous
 62
     7
370
    25
100
AcDbLine
 10
3.1110099139
 20
-7.4897874791
 30
0.0
 11
3.1635625971
 21
-7.4735635618
 31
0.0
  0
ARC
  5
21F
330
1F
100
AcDbEntity
  8
0
  6
Continuous
 62
     7
370
    25
100
AcDbCircle
 10
3.1812614159
 20
-7.5308937616
 30
0.0
 40
0.0600000000000022
100
AcDbArc
 50
287.1563569564
 51
107.1563569564
  0
LINE
  5
220
330
1F
100
AcDbEntity
  8
0
  6
Continuous
 62
     7
370
    25
100
AcDbLine
 10
3.1989602348
 20
-7.5882239614
 30
0.0
 11
3.1464075517
 21
-7.6044478787
 31
0.0
  0
ARC
  5
221
330
1F
100
AcDbEntity
  8
0
  6
Continuous
 62
     7
370
    25
100
AcDbCircle
 10
3.5882614723
 20
-7.7898598871
 30
0.0
 40
0.0600000000000006
100
AcDbArc
 50
197.1563569564
 51
17.1563569564
  0
LINE
  5
222
330
1F
100
AcDbEntity
  8
0
  6
Continuous
 62
     7
370
    25
100
AcDbLine
 10
3.5309312725
 20
-7.807558706
 30
0.0
 11
3.5147073551
 21
-7.7550060228
 31
0.0
  0
ARC
  5
223
330
1F
100
AcDbEntity
  8
0
  6
Continuous
 62
     7
370
    25
100
AcDbCircle
 10
3.572037555
 20
-7.7373072039
 30
0.0
 40
0.0600000000000013
100
AcDbArc
 50
17.1563569564
 51
197.1563569564
  0
LINE
  5
224
330
1F
100
AcDbEntity
  8
0
  6
Continuous
 62
     7
370
    25
100
AcDbLine
 10
3.6293677548
 20
-7.7196083851
 30
0.0
 11
3.6455916721
 21
-7.7721610682
 31
0.0
  0
ARC
  5
225
330
1F
100
AcDbEntity
  8
0
  6
Continuous
 62
     7
370
    25
100
AcDbCircle
 10
3.5961062066
 20
-7.2373615069
 30
0.0
 40
0.0425000000000013
100
AcDbArc
 50
330.0
 51
150.0
  0
LINE
  5
226
330
1F
100
AcDbEntity
  8
0
  6
Continuous
 62
     7
370
    25
100
AcDbLine
 10
3.595084222
 20
-7.3241316362
 30
0.0
 11
3.6329122863
 21
-7.2586115069
 31
0.0
  0
ARC
  5
227
330
1F
100
AcDbEntity
  8
0
  6
Continuous
 62
     7
370
    25
100
AcDbCircle
 10
3.4798562066
 20
-7.4387124133
 30
0.0
 40
0.1624999999999906
100
AcDbArc
 50
345.1613686066
 51
44.8386313934
  0
LINE
  5
228
330
1F
100
AcDbEntity
  8
0
  6
Continuous
 62
     7
370
    25
100
AcDbLine
 10
3.6369369837
 20
-7.4803282693
 30
0.0
 11
3.7717391453
 21
-7.5581563336
 31
0.0
  0
ARC
  5
229
330
1F
100
AcDbEntity
  8
0
  6
Continuous
 62
     7
370
    25
100
AcDbCircle
 10
3.7504891453
 20
-7.5949624133
 30
0.0
 40
0.0425000000000003
100
AcDbArc
 50
240.0
 51
60.0
  0
LINE
  5
22A
330
1F
100
AcDbEntity
  8
0
  6
Continuous
 62
     7
370
    25
100
AcDbLine
 10
3.5944369837
 20
-7.5539404286
 30
0.0
 11
3.7292391453
 21
-7.6317684929
 31
0.0
  0
ARC
  5
22B
330
1F
100
AcDbEntity
  8
0
  6
Continuous
 62
     7
370
    25
100
AcDbCircle
 10
3.4798562066
 20
-7.4387124133
 30
0.0
 40
0.1624999999999912
100
AcDbArc
 50
255.1613686066
 51
314.8386313934
  0
LINE
  5
22C
330
1F
100
AcDbEntity
  8
0
  6
Continuous
 62
     7
370
    25
100
AcDbLine
 10
3.4004122863
 20
-7.6613133196
 30
0.0
 11
3.4382403506
 21
-7.5957931903
 31
0.0
  0
ARC
  5
22D
330
1F
100
AcDbEntity
  8
0
  6
Continuous
 62
     7
370
    25
100
AcDbCircle
 10
3.3636062066
 20
-7.6400633196
 30
0.0
 40
0.0425000000000013
100
AcDbArc
 50
150.0
 51
330.0
  0
LINE
  5
22E
330
1F
100
AcDbEntity
  8
0
  6
Continuous
 62
     7
370
    25
100
AcDbLine
 10
3.326800127
 20
-7.6188133196
 30
0.0
 11
3.3646281913
 21
-7.5532931903
 31
0.0
  0
ARC
  5
22F
330
1F
100
AcDbEntity
  8
0
  6
Continuous
 62
     7
370
    25
100
AcDbCircle
 10
3.4798562066
 20
-7.4387124133
 30
0.0
 40
0.1624999999999906
100
AcDbArc
 50
165.1613686066
 51
224.8386313934
  0
LINE
  5
230
330
1F
100
AcDbEntity
  8
0
  6
Continuous
 62
     7
370
    25
100
AcDbLine
 10
3.1879732679
 20
-7.3192684929
 30
0.0
 11
3.3227754296
 21
-7.3970965572
 31
0.0
  0
ARC
  5
231
330
1F
100
AcDbEntity
  8
0
  6
Continuous
 62
     7
370
    25
100
AcDbCircle
 10
3.2092232679
 20
-7.2824624133
 30
0.0
 40
0.0425000000000003
100
AcDbArc
 50
60.0
 51
240.0
  0
LINE
  5
232
330
1F
100
AcDbEntity
  8
0
  6
Continuous
 62
     7
370
    25
100
AcDbLine
 10
3.2304732679
 20
-7.2456563336
 30
0.0
 11
3.3652754296
 21
-7.3234843979
 31
0.0
  0
ARC
  5
233
330
1F
100
AcDbEntity
  8
0
  6
Continuous
 62
     7
370
    25
100
AcDbCircle
 10
3.4798562066
 20
-7.4387124133
 30
0.0
 40
0.1624999999999906
100
AcDbArc
 50
75.1613686066
 51
134.8386313934
  0
LINE
  5
234
330
1F
100
AcDbEntity
  8
0
  6
Continuous
 62
     7
370
    25
100
AcDbLine
 10
3.5214720627
 20
-7.2816316362
 30
0.0
 11
3.559300127
 21
-7.2161115069
 31
0.0
  0
MTEXT
  5
236
330
1F
100
AcDbEntity
  8
0
  6
Continuous
 62
     7
100
AcDbMText
 10
-4.0855783197
 20
-8.1038528224
 30
0.0
 40
0.1903
 41
0.0
 71
     1
 72
     1
  1
SOLIDWORKS Educational Product.
  7
SLDTEXTSTYLE0
 73
     1
 44
1.0
  0
MTEXT
  5
237
330
1F
100
AcDbEntity
  8
0
  6
Continuous
 62
     7
100
AcDbMText
 10
-4.0855783197
 20
-8.3893028224
 30
0.0
 40
0.1903
 41
0.0
 71
     1
 72
     1
  1
For Instructional Use Only.
  7
SLDTEXTSTYLE0
 73
     1
 44
1.0
  0
ENDSEC
  0
SECTION
  2
OBJECTS
  0
DICTIONARY
  5
C
330
0
100
AcDbDictionary
281
     1
  3
ACAD_GROUP
350
D
  3
ACAD_LAYOUT
350
1A
  3
ACAD_MLINESTYLE
350
17
  3
ACAD_PLOTSETTINGS
350
19
  3
ACAD_PLOTSTYLENAME
350
E
  3
ACAD_SCALELIST
350
47
  0
DICTIONARY
  5
D
102
{ACAD_REACTORS
330
C
102
}
330
C
100
AcDbDictionary
281
     1
  0
DICTIONARY
  5
1A
102
{ACAD_REACTORS
330
C
102
}
330
C
100
AcDbDictionary
281
     1
  3
Layout1
350
1E
  3
Layout2
350
26
  3
Model
350
22
  0
DICTIONARY
  5
17
102
{ACAD_REACTORS
330
C
102
}
330
C
100
AcDbDictionary
281
     1
  3
Standard
350
18
  0
DICTIONARY
  5
19
102
{ACAD_REACTORS
330
C
102
}
330
C
100
AcDbDictionary
281
     1
  0
ACDBDICTIONARYWDFLT
  5
E
102
{ACAD_REACTORS
330
C
102
}
330
C
100
AcDbDictionary
281
     1
  3
Normal
350
F
100
AcDbDictionaryWithDefault
340
F
  0
DICTIONARY
  5
47
102
{ACAD_REACTORS
330
C
102
}
330
C
100
AcDbDictionary
281
     1
  3
A0
350
48
  3
A1
350
49
  3
A2
350
4A
  3
A3
350
4B
  3
A4
350
4C
  3
A5
350
4D
  3
A6
350
4E
  3
A7
350
4F
  3
A8
350
50
  3
A9
350
51
  3
B0
350
52
  3
B1
350
53
  3
B2
350
54
  3
B3
350
55
  3
B4
350
56
  3
B5
350
57
  3
B6
350
58
  3
B7
350
59
  3
B8
350
5A
  3
B9
350
5B
  3
C0
350
5C
  3
C1
350
5D
  3
C2
350
5E
  3
C3
350
5F
  3
C4
350
60
  3
C5
350
61
  3
C6
350
62
  3
C7
350
63
  3
C8
350
64
  3
C9
350
65
  3
D0
350
66
  3
D1
350
67
  3
D2
350
68
  0
LAYOUT
  5
1E
102
{ACAD_REACTORS
330
1A
102
}
330
1A
100
AcDbPlotSettings
  1

  2
none_device
  4

  6

 40
0.0
 41
0.0
 42
0.0
 43
0.0
 44
0.0
 45
0.0
 46
0.0
 47
0.0
 48
0.0
 49
0.0
140
0.0
141
0.0
142
1.0
143
1.0
 70
   688
 72
     0
 73
     0
 74
     5
  7

 75
    16
147
1.0
148
0.0
149
0.0
100
AcDbLayout
  1
Layout1
 70
     1
 71
     1
 10
0.0
 20
0.0
 11
12.0
 21
9.0
 12
0.0
 22
0.0
 32
0.0
 14
1.0000000000E+20
 24
1.0000000000E+20
 34
1.0000000000E+20
 15
-1.0000000000E+20
 25
-1.0000000000E+20
 35
-1.0000000000E+20
146
0.0
 13
0.0
 23
0.0
 33
0.0
 16
1.0
 26
0.0
 36
0.0
 17
0.0
 27
1.0
 37
0.0
 76
     0
330
1B
  0
LAYOUT
  5
26
102
{ACAD_REACTORS
330
1A
102
}
330
1A
100
AcDbPlotSettings
  1

  2
none_device
  4

  6

 40
0.0
 41
0.0
 42
0.0
 43
0.0
 44
0.0
 45
0.0
 46
0.0
 47
0.0
 48
0.0
 49
0.0
140
0.0
141
0.0
142
1.0
143
1.0
 70
   688
 72
     0
 73
     0
 74
     5
  7

 75
    16
147
1.0
148
0.0
149
0.0
100
AcDbLayout
  1
Layout2
 70
     1
 71
     2
 10
0.0
 20
0.0
 11
0.0
 21
0.0
 12
0.0
 22
0.0
 32
0.0
 14
0.0
 24
0.0
 34
0.0
 15
0.0
 25
0.0
 35
0.0
146
0.0
 13
0.0
 23
0.0
 33
0.0
 16
1.0
 26
0.0
 36
0.0
 17
0.0
 27
1.0
 37
0.0
 76
     0
330
23
  0
LAYOUT
  5
22
102
{ACAD_REACTORS
330
1A
102
}
330
1A
100
AcDbPlotSettings
  1

  2
none_device
  4
ANSI_A_(11.00_x_8.50_Inches)
  6

 40
6.35
 41
19.05
 42
6.35000508
 43
19.05000254
 44
279.4
 45
215.9
 46
133.34999746
 47
180.4869574123
 48
0.0
 49
0.0
140
0.0
141
0.0
142
0.9689440018
143
1.0
 70
  1696
 72
     0
 73
     0
 74
     0
  7

 75
     0
147
0.5913241897
148
-39.4088153714
149
0.0
100
AcDbLayout
  1
Model
 70
     1
 71
     0
 10
0.0
 20
0.0
 11
12.0
 21
9.0
 12
0.0
 22
0.0
 32
0.0
 14
-4.0855783197
 24
-8.0637124133
 34
0.0
 15
4.0855783197
 25
0.621
 35
0.0
146
0.0
 13
0.0
 23
0.0
 33
0.0
 16
1.0
 26
0.0
 36
0.0
 17
0.0
 27
1.0
 37
0.0
 76
     0
330
1F
331
29
  0
MLINESTYLE
  5
18
102
{ACAD_REACTORS
330
17
102
}
330
17
100
AcDbMlineStyle
  2
Standard
 70
     0
  3

 62
   256
 51
90.0
 52
90.0
 71
     2
 49
0.5
 62
   256
  6
BYLAYER
 49
-0.5
 62
   256
  6
BYLAYER
  0
ACDBPLACEHOLDER
  5
F
102
{ACAD_REACTORS
330
E
102
}
330
E
  0
SCALE
  5
48
102
{ACAD_REACTORS
330
47
102
}
330
47
100
AcDbScale
 70
     0
300
1:1
140
1.0
141
1.0
290
     1
  0
SCALE
  5
49
102
{ACAD_REACTORS
330
47
102
}
330
47
100
AcDbScale
 70
     0
300
1:2
140
1.0
141
2.0
290
     0
  0
SCALE
  5
4A
102
{ACAD_REACTORS
330
47
102
}
330
47
100
AcDbScale
 70
     0
300
1:4
140
1.0
141
4.0
290
     0
  0
SCALE
  5
4B
102
{ACAD_REACTORS
330
47
102
}
330
47
100
AcDbScale
 70
     0
300
1:5
140
1.0
141
5.0
290
     0
  0
SCALE
  5
4C
102
{ACAD_REACTORS
330
47
102
}
330
47
100
AcDbScale
 70
     0
300
1:8
140
1.0
141
8.0
290
     0
  0
SCALE
  5
4D
102
{ACAD_REACTORS
330
47
102
}
330
47
100
AcDbScale
 70
     0
300
1:10
140
1.0
141
10.0
290
     0
  0
SCALE
  5
4E
102
{ACAD_REACTORS
330
47
102
}
330
47
100
AcDbScale
 70
     0
300
1:16
140
1.0
141
16.0
290
     0
  0
SCALE
  5
4F
102
{ACAD_REACTORS
330
47
102
}
330
47
100
AcDbScale
 70
     0
300
1:20
140
1.0
141
20.0
290
     0
  0
SCALE
  5
50
102
{ACAD_REACTORS
330
47
102
}
330
47
100
AcDbScale
 70
     0
300
1:30
140
1.0
141
30.0
290
     0
  0
SCALE
  5
51
102
{ACAD_REACTORS
330
47
102
}
330
47
100
AcDbScale
 70
     0
300
1:40
140
1.0
141
40.0
290
     0
  0
SCALE
  5
52
102
{ACAD_REACTORS
330
47
102
}
330
47
100
AcDbScale
 70
     0
300
1:50
140
1.0
141
50.0
290
     0
  0
SCALE
  5
53
102
{ACAD_REACTORS
330
47
102
}
330
47
100
AcDbScale
 70
     0
300
1:100
140
1.0
141
100.0
290
     0
  0
SCALE
  5
54
102
{ACAD_REACTORS
330
47
102
}
330
47
100
AcDbScale
 70
     0
300
2:1
140
2.0
141
1.0
290
     0
  0
SCALE
  5
55
102
{ACAD_REACTORS
330
47
102
}
330
47
100
AcDbScale
 70
     0
300
4:1
140
4.0
141
1.0
290
     0
  0
SCALE
  5
56
102
{ACAD_REACTORS
330
47
102
}
330
47
100
AcDbScale
 70
     0
300
8:1
140
8.0
141
1.0
290
     0
  0
SCALE
  5
57
102
{ACAD_REACTORS
330
47
102
}
330
47
100
AcDbScale
 70
     0
300
10:1
140
10.0
141
1.0
290
     0
  0
SCALE
  5
58
102
{ACAD_REACTORS
330
47
102
}
330
47
100
AcDbScale
 70
     0
300
100:1
140
100.0
141
1.0
290
     0
  0
SCALE
  5
59
102
{ACAD_REACTORS
330
47
102
}
330
47
100
AcDbScale
 70
     0
300
1/128" = 1'-0"
140
0.0078125
141
12.0
290
     0
  0
SCALE
  5
5A
102
{ACAD_REACTORS
330
47
102
}
330
47
100
AcDbScale
 70
     0
300
1/64" = 1'-0"
140
0.015625
141
12.0
290
     0
  0
SCALE
  5
5B
102
{ACAD_REACTORS
330
47
102
}
330
47
100
AcDbScale
 70
     0
300
1/32" = 1'-0"
140
0.03125
141
12.0
290
     0
  0
SCALE
  5
5C
102
{ACAD_REACTORS
330
47
102
}
330
47
100
AcDbScale
 70
     0
300
1/16" = 1'-0"
140
0.0625
141
12.0
290
     0
  0
SCALE
  5
5D
102
{ACAD_REACTORS
330
47
102
}
330
47
100
AcDbScale
 70
     0
300
3/32" = 1'-0"
140
0.09375
141
12.0
290
     0
  0
SCALE
  5
5E
102
{ACAD_REACTORS
330
47
102
}
330
47
100
AcDbScale
 70
     0
300
1/8" = 1'-0"
140
0.125
141
12.0
290
     0
  0
SCALE
  5
5F
102
{ACAD_REACTORS
330
47
102
}
330
47
100
AcDbScale
 70
     0
300
3/16" = 1'-0"
140
0.1875
141
12.0
290
     0
  0
SCALE
  5
60
102
{ACAD_REACTORS
330
47
102
}
330
47
100
AcDbScale
 70
     0
300
1/4" = 1'-0"
140
0.25
141
12.0
290
     0
  0
SCALE
  5
61
102
{ACAD_REACTORS
330
47
102
}
330
47
100
AcDbScale
 70
     0
300
3/8" = 1'-0"
140
0.375
141
12.0
290
     0
  0
SCALE
  5
62
102
{ACAD_REACTORS
330
47
102
}
330
47
100
AcDbScale
 70
     0
300
1/2" = 1'-0"
140
0.5
141
12.0
290
     0
  0
SCALE
  5
63
102
{ACAD_REACTORS
330
47
102
}
330
47
100
AcDbScale
 70
     0
300
3/4" = 1'-0"
140
0.75
141
12.0
290
     0
  0
SCALE
  5
64
102
{ACAD_REACTORS
330
47
102
}
330
47
100
AcDbScale
 70
     0
300
1" = 1'-0"
140
1.0
141
12.0
290
     0
  0
SCALE
  5
65
102
{ACAD_REACTORS
330
47
102
}
330
47
100
AcDbScale
 70
     0
300
1-1/2" = 1'-0"
140
1.5
141
12.0
290
     0
  0
SCALE
  5
66
102
{ACAD_REACTORS
330
47
102
}
330
47
100
AcDbScale
 70
     0
300
3" = 1'-0"
140
3.0
141
12.0
290
     0
  0
SCALE
  5
67
102
{ACAD_REACTORS
330
47
102
}
330
47
100
AcDbScale
 70
     0
300
6" = 1'-0"
140
6.0
141
12.0
290
     0
  0
SCALE
  5
68
102
{ACAD_REACTORS
330
47
102
}
330
47
100
AcDbScale
 70
     0
300
1'-0" = 1'-0"
140
12.0
141
12.0
290
     0
  0
ENDSEC
  0
EOF
